<svg xmlns="http://www.w3.org/2000/svg" xmlns:xlink="http://www.w3.org/1999/xlink" width="245pt" height="305pt" viewBox="0 0 245 305"><g id="graph0" class="graph" transform="scale(1 1) rotate(0) translate(4 301)"><title>%3</title><polygon fill="#fff" stroke="none" points="-4 4 -4 -301 241 -301 241 4 -4 4"/><g id="node1" class="node"><title>x0</title><ellipse cx="150" cy="-105" fill="none" stroke="#000" rx="27" ry="18"/><text x="150" y="-101.3" font-family="Times New Roman,serif" font-size="14" text-anchor="middle">x0</text></g><g id="node2" class="node"><title>x1</title><ellipse cx="125" cy="-18" fill="none" stroke="#000" rx="27" ry="18"/><text x="125" y="-14.3" font-family="Times New Roman,serif" font-size="14" text-anchor="middle">x1</text></g><g id="edge2" class="edge"><title>x0-&gt;x1</title><path fill="none" stroke="#000" d="M147.442,-86.6548C145.783,-76.931 143.308,-64.6521 140,-54 139.069,-51.0031 137.968,-47.9142 136.791,-44.8705"/><polygon fill="#000" stroke="#000" points="139.956 -43.366 132.892 -35.469 133.49 -46.047 139.956 -43.366"/><text x="155.5" y="-57.8" font-family="Times New Roman,serif" font-size="14" text-anchor="middle">0.50</text></g><g id="node5" class="node"><title>x4</title><ellipse cx="27" cy="-18" fill="none" stroke="#000" rx="27" ry="18"/><text x="27" y="-14.3" font-family="Times New Roman,serif" font-size="14" text-anchor="middle">x4</text></g><g id="edge6" class="edge"><title>x0-&gt;x4</title><path fill="none" stroke="#000" d="M134.544,-90.005C120.464,-77.3813 100.597,-59.916 92,-54 81.194,-46.5643 68.6395,-39.4801 57.4616,-33.6547"/><polygon fill="#000" stroke="#000" points="58.964 -30.492 48.465 -29.077 55.79 -36.731 58.964 -30.492"/><text x="121.5" y="-57.8" font-family="Times New Roman,serif" font-size="14" text-anchor="middle">0.50</text></g><g id="node6" class="node"><title>x5</title><ellipse cx="210" cy="-18" fill="none" stroke="#000" rx="27" ry="18"/><text x="210" y="-14.3" font-family="Times New Roman,serif" font-size="14" text-anchor="middle">x5</text></g><g id="edge8" class="edge"><title>x0-&gt;x5</title><path fill="none" stroke="#000" d="M161.005,-88.4097C169.97,-75.709 182.78,-57.5615 193.053,-43.0079"/><polygon fill="#000" stroke="#000" points="196.157 -44.68 199.065 -34.492 190.439 -40.643 196.157 -44.68"/><text x="195.5" y="-57.8" font-family="Times New Roman,serif" font-size="14" text-anchor="middle">0.50</text></g><g id="node3" class="node"><title>x2</title><ellipse cx="66" cy="-105" fill="none" stroke="#000" rx="27" ry="18"/><text x="66" y="-101.3" font-family="Times New Roman,serif" font-size="14" text-anchor="middle">x2</text></g><g id="edge3" class="edge"><title>x2-&gt;x1</title><path fill="none" stroke="#000" d="M62.441,-87.1561C61.1798,-76.9067 61.2665,-63.9233 67,-54 72.721,-44.0984 82.4634,-36.6692 92.347,-31.2627"/><polygon fill="#000" stroke="#000" points="93.91 -34.394 101.352 -26.853 90.832 -28.108 93.91 -34.394"/><text x="79.5" y="-57.8" font-family="Times New Roman,serif" font-size="14" text-anchor="middle">0.50</text></g><g id="edge7" class="edge"><title>x2-&gt;x4</title><path fill="none" stroke="#000" d="M43.7256,-94.7988C32.9729,-89.0846 21.1041,-80.5923 15,-69 11.0376,-61.4751 11.6861,-52.6266 14.0624,-44.4816"/><polygon fill="#000" stroke="#000" points="17.372 -45.624 17.624 -35.032 10.822 -43.155 17.372 -45.624"/><text x="29.5" y="-57.8" font-family="Times New Roman,serif" font-size="14" text-anchor="middle">-0.50</text></g><g id="node4" class="node"><title>x3</title><ellipse cx="145" cy="-192" fill="none" stroke="#000" rx="27" ry="18"/><text x="145" y="-188.3" font-family="Times New Roman,serif" font-size="14" text-anchor="middle">x3</text></g><g id="edge1" class="edge"><title>x3-&gt;x0</title><path fill="none" stroke="#000" d="M146.012,-173.799C146.696,-162.163 147.615,-146.548 148.398,-133.237"/><polygon fill="#000" stroke="#000" points="151.896 -133.364 148.99 -123.175 144.908 -132.953 151.896 -133.364"/><text x="159.5" y="-144.8" font-family="Times New Roman,serif" font-size="14" text-anchor="middle">0.50</text></g><g id="node7" class="node"><title>x6</title><ellipse cx="99" cy="-279" fill="none" stroke="#000" rx="27" ry="18"/><text x="99" y="-275.3" font-family="Times New Roman,serif" font-size="14" text-anchor="middle">x6</text></g><g id="edge4" class="edge"><title>x6-&gt;x2</title><path fill="none" stroke="#000" d="M95.0233,-260.998C91.8671,-247.27 87.4303,-227.437 84,-210 78.8796,-183.972 73.7943,-154.124 70.3417,-133.1"/><polygon fill="#000" stroke="#000" points="73.755 -132.284 68.694 -122.977 66.846 -133.409 73.755 -132.284"/><text x="96.5" y="-188.3" font-family="Times New Roman,serif" font-size="14" text-anchor="middle">2.00</text></g><g id="edge5" class="edge"><title>x6-&gt;x3</title><path fill="none" stroke="#000" d="M107.869,-261.611C114.53,-249.303 123.772,-232.226 131.369,-218.187"/><polygon fill="#000" stroke="#000" points="134.633 -219.511 136.314 -209.05 128.476 -216.179 134.633 -219.511"/><text x="136.5" y="-231.8" font-family="Times New Roman,serif" font-size="14" text-anchor="middle">2.00</text></g></g></svg>