<svg xmlns="http://www.w3.org/2000/svg" xmlns:xlink="http://www.w3.org/1999/xlink" width="241pt" height="218pt" viewBox="0 0 241 218"><g id="graph0" class="graph" transform="scale(1 1) rotate(0) translate(4 214)"><title>%3</title><polygon fill="#fff" stroke="none" points="-4 4 -4 -214 237 -214 237 4 -4 4"/><g id="node1" class="node"><title>x0</title><ellipse cx="158" cy="-105" fill="none" stroke="#000" rx="27" ry="18"/><text x="158" y="-101.3" font-family="Times New Roman,serif" font-size="14" text-anchor="middle">x0</text></g><g id="node2" class="node"><title>x1</title><ellipse cx="27" cy="-18" fill="none" stroke="#000" rx="27" ry="18"/><text x="27" y="-14.3" font-family="Times New Roman,serif" font-size="14" text-anchor="middle">x1</text></g><g id="edge2" class="edge"><title>x0-&gt;x1</title><path fill="none" stroke="#000" d="M139.231,-91.8216C116.954,-77.3673 79.6303,-53.1494 54.1922,-36.6438"/><polygon fill="#000" stroke="#000" points="56.028 -33.663 45.734 -31.156 52.218 -39.535 56.028 -33.663"/><text x="113.5" y="-57.8" font-family="Times New Roman,serif" font-size="14" text-anchor="middle">0.50</text></g><g id="node5" class="node"><title>x4</title><ellipse cx="122" cy="-18" fill="none" stroke="#000" rx="27" ry="18"/><text x="122" y="-14.3" font-family="Times New Roman,serif" font-size="14" text-anchor="middle">x4</text></g><g id="edge4" class="edge"><title>x0-&gt;x4</title><path fill="none" stroke="#000" d="M150.888,-87.2067C145.776,-75.1377 138.788,-58.6384 132.965,-44.8906"/><polygon fill="#000" stroke="#000" points="136.098 -43.312 128.975 -35.469 129.652 -46.042 136.098 -43.312"/><text x="155.5" y="-57.8" font-family="Times New Roman,serif" font-size="14" text-anchor="middle">0.45</text></g><g id="node6" class="node"><title>x5</title><ellipse cx="206" cy="-18" fill="none" stroke="#000" rx="27" ry="18"/><text x="206" y="-14.3" font-family="Times New Roman,serif" font-size="14" text-anchor="middle">x5</text></g><g id="edge6" class="edge"><title>x0-&gt;x5</title><path fill="none" stroke="#000" d="M167.028,-88.0122C174.024,-75.625 183.844,-58.235 191.876,-44.0109"/><polygon fill="#000" stroke="#000" points="194.979 -45.634 196.849 -35.205 188.884 -42.192 194.979 -45.634"/><text x="197.5" y="-57.8" font-family="Times New Roman,serif" font-size="14" text-anchor="middle">0.48</text></g><g id="node3" class="node"><title>x2</title><ellipse cx="68" cy="-192" fill="none" stroke="#000" rx="27" ry="18"/><text x="68" y="-188.3" font-family="Times New Roman,serif" font-size="14" text-anchor="middle">x2</text></g><g id="edge3" class="edge"><title>x2-&gt;x1</title><path fill="none" stroke="#000" d="M56.4427,-175.472C47.3531,-162.274 35.3595,-142.425 30,-123 23.045,-97.7928 22.9966,-67.8374 24.2677,-46.5646"/><polygon fill="#000" stroke="#000" points="27.779 -46.533 25.023 -36.303 20.798 -46.019 27.779 -46.533"/><text x="42.5" y="-101.3" font-family="Times New Roman,serif" font-size="14" text-anchor="middle">0.49</text></g><g id="node4" class="node"><title>x3</title><ellipse cx="158" cy="-192" fill="none" stroke="#000" rx="27" ry="18"/><text x="158" y="-188.3" font-family="Times New Roman,serif" font-size="14" text-anchor="middle">x3</text></g><g id="edge7" class="edge"><title>x2-&gt;x3</title><path fill="none" stroke="#000" d="M105.164,-192C110.404,-192 115.644,-192 120.883,-192"/><polygon fill="#000" stroke="#000" points="105.07 -188.5 95.07 -192 105.07 -195.5 105.07 -188.5"/><polygon fill="#000" stroke="#000" points="120.96 -195.5 130.96 -192 120.96 -188.5 120.96 -195.5"/></g><g id="edge5" class="edge"><title>x2-&gt;x4</title><path fill="none" stroke="#000" d="M67.9037,-173.648C68.3984,-146.72 71.9778,-93.8255 91,-54 93.2598,-49.2688 96.3528,-44.6969 99.7147,-40.5051"/><polygon fill="#000" stroke="#000" points="102.371 -42.785 106.363 -32.971 97.122 -38.153 102.371 -42.785"/><text x="93.5" y="-101.3" font-family="Times New Roman,serif" font-size="14" text-anchor="middle">-0.45</text></g><g id="edge1" class="edge"><title>x3-&gt;x0</title><path fill="none" stroke="#000" d="M158,-173.799C158,-162.163 158,-146.548 158,-133.237"/><polygon fill="#000" stroke="#000" points="161.5 -133.175 158 -123.175 154.5 -133.175 161.5 -133.175"/><text x="170.5" y="-144.8" font-family="Times New Roman,serif" font-size="14" text-anchor="middle">0.51</text></g></g></svg>