<svg xmlns="http://www.w3.org/2000/svg" xmlns:xlink="http://www.w3.org/1999/xlink" width="305pt" height="305pt" viewBox="0 0 305 305"><g id="graph0" class="graph" transform="scale(1 1) rotate(0) translate(4 301)"><title>%3</title><polygon fill="#fff" stroke="none" points="-4 4 -4 -301 301 -301 301 4 -4 4"/><g id="node1" class="node"><title>x0</title><ellipse cx="84" cy="-192" fill="none" stroke="#000" rx="27" ry="18"/><text x="84" y="-188.3" font-family="Times New Roman,serif" font-size="14" text-anchor="middle">x0</text></g><g id="node2" class="node"><title>x1</title><ellipse cx="185" cy="-105" fill="none" stroke="#000" rx="27" ry="18"/><text x="185" y="-101.3" font-family="Times New Roman,serif" font-size="14" text-anchor="middle">x1</text></g><g id="edge2" class="edge"><title>x0-&gt;x1</title><path fill="none" stroke="#000" d="M92.0157,-174.568C97.817,-163.968 106.473,-150.447 117,-141 120.252,-138.082 138.136,-128.912 154.747,-120.69"/><polygon fill="#000" stroke="#000" points="156.314 -123.82 163.742 -116.266 153.224 -117.539 156.314 -123.82"/><text x="129.5" y="-144.8" font-family="Times New Roman,serif" font-size="14" text-anchor="middle">3.00</text></g><g id="node5" class="node"><title>x4</title><ellipse cx="113" cy="-105" fill="none" stroke="#000" rx="27" ry="18"/><text x="113" y="-101.3" font-family="Times New Roman,serif" font-size="14" text-anchor="middle">x4</text></g><g id="edge5" class="edge"><title>x0-&gt;x4</title><path fill="none" stroke="#000" d="M69.8956,-176.343C61.9715,-166.259 54.8039,-152.639 61,-141 65.5815,-132.394 73.3253,-125.524 81.4568,-120.231"/><polygon fill="#000" stroke="#000" points="83.41 -123.144 90.301 -115.097 79.895 -117.09 83.41 -123.144"/><text x="73.5" y="-144.8" font-family="Times New Roman,serif" font-size="14" text-anchor="middle">7.98</text></g><g id="node6" class="node"><title>x5</title><ellipse cx="27" cy="-105" fill="none" stroke="#000" rx="27" ry="18"/><text x="27" y="-101.3" font-family="Times New Roman,serif" font-size="14" text-anchor="middle">x5</text></g><g id="edge7" class="edge"><title>x0-&gt;x5</title><path fill="none" stroke="#000" d="M60.793,-182.383C49.1208,-176.757 35.998,-168.165 29,-156 25.1284,-149.27 23.7163,-141.144 23.5183,-133.419"/><polygon fill="#000" stroke="#000" points="27.02 -133.419 23.884 -123.3 20.025 -133.167 27.02 -133.419"/><text x="41.5" y="-144.8" font-family="Times New Roman,serif" font-size="14" text-anchor="middle">4.00</text></g><g id="node7" class="node"><title>Y(pred)</title><ellipse cx="185" cy="-18" fill="none" stroke="red" rx="39.794" ry="18"/><text x="185" y="-14.3" fill="red" font-family="Times New Roman,serif" font-size="14" text-anchor="middle">Y(pred)</text></g><g id="edge8" class="edge"><title>x1-&gt;Y(pred)</title><path fill="none" stroke="red" stroke-dasharray="5 2" d="M185,-86.799C185,-75.1626 185,-59.5479 185,-46.2368"/><polygon fill="red" stroke="red" points="188.5 -46.175 185 -36.175 181.5 -46.175 188.5 -46.175"/><text x="197.5" y="-57.8" fill="red" font-family="Times New Roman,serif" font-size="14" text-anchor="middle">0.03</text></g><g id="node3" class="node"><title>x2</title><ellipse cx="208" cy="-192" fill="none" stroke="#000" rx="27" ry="18"/><text x="208" y="-188.3" font-family="Times New Roman,serif" font-size="14" text-anchor="middle">x2</text></g><g id="edge3" class="edge"><title>x2-&gt;x1</title><path fill="none" stroke="#000" d="M203.456,-174.207C200.243,-162.332 195.869,-146.168 192.186,-132.557"/><polygon fill="#000" stroke="#000" points="195.525 -131.497 189.535 -122.758 188.768 -133.325 195.525 -131.497"/><text x="209.5" y="-144.8" font-family="Times New Roman,serif" font-size="14" text-anchor="middle">2.00</text></g><g id="edge6" class="edge"><title>x2-&gt;x4</title><path fill="none" stroke="#000" d="M190.051,-178.283C181.346,-171.883 170.879,-163.834 162,-156 152.273,-147.417 142.139,-137.3 133.628,-128.419"/><polygon fill="#000" stroke="#000" points="136.031 -125.866 126.618 -121.003 130.944 -130.675 136.031 -125.866"/><text x="176.5" y="-144.8" font-family="Times New Roman,serif" font-size="14" text-anchor="middle">-0.99</text></g><g id="edge9" class="edge"><title>x2-&gt;Y(pred)</title><path fill="none" stroke="red" stroke-dasharray="5 2" d="M218.115,-175.248C221.294,-169.434 224.392,-162.641 226,-156 236.74,-111.635 233.874,-95.0924 214,-54 212.106,-50.0839 209.683,-46.2315 207.047,-42.5969"/><polygon fill="red" stroke="red" points="209.628 -40.22 200.657 -34.584 204.155 -44.584 209.628 -40.22"/><text x="244.5" y="-101.3" fill="red" font-family="Times New Roman,serif" font-size="14" text-anchor="middle">0.02</text></g><g id="node4" class="node"><title>x3</title><ellipse cx="208" cy="-279" fill="none" stroke="#000" rx="27" ry="18"/><text x="208" y="-275.3" font-family="Times New Roman,serif" font-size="14" text-anchor="middle">x3</text></g><g id="edge1" class="edge"><title>x3-&gt;x0</title><path fill="none" stroke="#000" d="M189.703,-265.458C168.823,-251.145 134.488,-227.609 110.639,-211.261"/><polygon fill="#000" stroke="#000" points="112.599 -208.361 102.372 -205.593 108.641 -214.134 112.599 -208.361"/><text x="165.5" y="-231.8" font-family="Times New Roman,serif" font-size="14" text-anchor="middle">3.01</text></g><g id="edge4" class="edge"><title>x3-&gt;x2</title><path fill="none" stroke="#000" d="M208,-260.799C208,-249.163 208,-233.548 208,-220.237"/><polygon fill="#000" stroke="#000" points="211.5 -220.175 208 -210.175 204.5 -220.175 211.5 -220.175"/><text x="220.5" y="-231.8" font-family="Times New Roman,serif" font-size="14" text-anchor="middle">6.00</text></g><g id="edge10" class="edge"><title>x3-&gt;Y(pred)</title><path fill="none" stroke="red" stroke-dasharray="5 2" d="M222.45,-263.789C227.76,-257.825 233.358,-250.53 237,-243 267.542,-179.849 286.296,-152.43 261,-87 253.008,-66.3281 234.66,-49.6135 217.995,-37.9289"/><polygon fill="red" stroke="red" points="219.763 -34.902 209.497 -32.283 215.889 -40.732 219.763 -34.902"/><text x="284.5" y="-144.8" fill="red" font-family="Times New Roman,serif" font-size="14" text-anchor="middle">0.04</text></g><g id="edge11" class="edge"><title>x4-&gt;Y(pred)</title><path fill="none" stroke="red" stroke-dasharray="5 2" d="M125.872,-88.8037C136.725,-75.9913 152.441,-57.4376 164.943,-42.6786"/><polygon fill="red" stroke="red" points="167.713 -44.823 171.506 -34.93 162.372 -40.298 167.713 -44.823"/><text x="165.5" y="-57.8" fill="red" font-family="Times New Roman,serif" font-size="14" text-anchor="middle">0.09</text></g><g id="edge12" class="edge"><title>x5-&gt;Y(pred)</title><path fill="none" stroke="red" stroke-dasharray="5 2" d="M46.7544,-92.3777C64.4806,-82.0443 91.281,-66.6567 115,-54 126.238,-48.0032 138.633,-41.7048 149.83,-36.1298"/><polygon fill="red" stroke="red" points="151.493 -39.212 158.902 -31.64 148.387 -32.939 151.493 -39.212"/><text x="127.5" y="-57.8" fill="red" font-family="Times New Roman,serif" font-size="14" text-anchor="middle">0.05</text></g></g></svg>