<svg xmlns="http://www.w3.org/2000/svg" xmlns:xlink="http://www.w3.org/1999/xlink" width="140pt" height="392pt" viewBox="0 0 139.79 392"><g id="graph0" class="graph" transform="scale(1 1) rotate(0) translate(4 388)"><title>%3</title><polygon fill="#fff" stroke="none" points="-4 4 -4 -388 135.795 -388 135.795 4 -4 4"/><g id="node1" class="node"><title>x0(0)</title><ellipse cx="101.897" cy="-105" fill="none" stroke="#000" rx="29.795" ry="18"/><text x="101.897" y="-101.3" font-family="Times New Roman,serif" font-size="14" text-anchor="middle">x0(0)</text></g><g id="node5" class="node"><title>x4(0)</title><ellipse cx="51.897" cy="-18" fill="none" stroke="#000" rx="29.795" ry="18"/><text x="51.897" y="-14.3" font-family="Times New Roman,serif" font-size="14" text-anchor="middle">x4(0)</text></g><g id="edge6" class="edge"><title>x0(0)-&gt;x4(0)</title><path fill="none" stroke="#000" d="M92.2568,-87.6111C84.9939,-75.2642 74.9072,-58.1167 66.6346,-44.0534"/><polygon fill="#000" stroke="#000" points="69.595 -42.183 61.508 -35.339 63.562 -45.733 69.595 -42.183"/><text x="92.397" y="-57.8" font-family="Times New Roman,serif" font-size="14" text-anchor="middle">0.10</text></g><g id="node2" class="node"><title>x1(0)</title><ellipse cx="29.897" cy="-192" fill="none" stroke="#000" rx="29.795" ry="18"/><text x="29.897" y="-188.3" font-family="Times New Roman,serif" font-size="14" text-anchor="middle">x1(0)</text></g><g id="edge1" class="edge"><title>x1(0)-&gt;x0(0)</title><path fill="none" stroke="#000" d="M39.3152,-174.491C45.4403,-164.368 53.9339,-151.399 62.8973,-141 67.1851,-136.026 72.1557,-131.073 77.0832,-126.527"/><polygon fill="#000" stroke="#000" points="79.536 -129.029 84.686 -119.771 74.886 -123.797 79.536 -129.029"/><text x="75.397" y="-144.8" font-family="Times New Roman,serif" font-size="14" text-anchor="middle">0.50</text></g><g id="edge7" class="edge"><title>x1(0)-&gt;x4(0)</title><path fill="none" stroke="#000" d="M29.4085,-173.96C29.0777,-153.272 29.3494,-117.379 33.8973,-87 35.9739,-73.1297 39.8098,-58.0191 43.4087,-45.5724"/><polygon fill="#000" stroke="#000" points="46.81 -46.413 46.332 -35.829 40.106 -44.402 46.81 -46.413"/><text x="48.397" y="-101.3" font-family="Times New Roman,serif" font-size="14" text-anchor="middle">-0.70</text></g><g id="node3" class="node"><title>x2(0)</title><ellipse cx="97.897" cy="-279" fill="none" stroke="#000" rx="29.795" ry="18"/><text x="97.897" y="-275.3" font-family="Times New Roman,serif" font-size="14" text-anchor="middle">x2(0)</text></g><g id="edge2" class="edge"><title>x2(0)-&gt;x0(0)</title><path fill="none" stroke="#000" d="M98.2955,-260.879C98.9903,-231.001 100.43,-169.113 101.263,-133.274"/><polygon fill="#000" stroke="#000" points="104.767 -133.13 101.501 -123.052 97.769 -132.967 104.767 -133.13"/><text x="114.397" y="-188.3" font-family="Times New Roman,serif" font-size="14" text-anchor="middle">-0.30</text></g><g id="edge3" class="edge"><title>x2(0)-&gt;x1(0)</title><path fill="none" stroke="#000" d="M80.078,-264.077C73.004,-258.045 65.0945,-250.625 58.8973,-243 52.8271,-235.532 47.2349,-226.642 42.6146,-218.443"/><polygon fill="#000" stroke="#000" points="45.668 -216.731 37.837 -209.594 39.508 -220.056 45.668 -216.731"/><text x="73.397" y="-231.8" font-family="Times New Roman,serif" font-size="14" text-anchor="middle">-0.30</text></g><g id="node4" class="node"><title>x3(0)</title><ellipse cx="50.897" cy="-366" fill="none" stroke="#000" rx="29.795" ry="18"/><text x="50.897" y="-362.3" font-family="Times New Roman,serif" font-size="14" text-anchor="middle">x3(0)</text></g><g id="edge4" class="edge"><title>x3(0)-&gt;x1(0)</title><path fill="none" stroke="#000" d="M45.6501,-348.146C41.6542,-334.502 36.4238,-314.709 33.8973,-297 30.2029,-271.105 29.4077,-241.239 29.4142,-220.175"/><polygon fill="#000" stroke="#000" points="32.915 -220.052 29.48 -210.029 25.915 -220.007 32.915 -220.052"/><text x="46.397" y="-275.3" font-family="Times New Roman,serif" font-size="14" text-anchor="middle">0.40</text></g><g id="edge5" class="edge"><title>x3(0)-&gt;x2(0)</title><path fill="none" stroke="#000" d="M59.9594,-348.611C66.7216,-336.382 76.0877,-319.443 83.8217,-305.456"/><polygon fill="#000" stroke="#000" points="87.087 -306.783 88.863 -296.339 80.961 -303.396 87.087 -306.783"/><text x="90.397" y="-318.8" font-family="Times New Roman,serif" font-size="14" text-anchor="middle">0.30</text></g></g></svg>