<svg xmlns="http://www.w3.org/2000/svg" xmlns:xlink="http://www.w3.org/1999/xlink" width="184pt" height="305pt" viewBox="0 0 184.32 305"><g id="graph0" class="graph" transform="scale(1 1) rotate(0) translate(4 301)"><title>%3</title><polygon fill="#fff" stroke="none" points="-4 4 -4 -301 180.321 -301 180.321 4 -4 4"/><g id="node1" class="node"><title>x0(1)</title><ellipse cx="68.424" cy="-18" fill="none" stroke="#000" rx="29.795" ry="18"/><text x="68.424" y="-14.3" font-family="Times New Roman,serif" font-size="14" text-anchor="middle">x0(1)</text></g><g id="node2" class="node"><title>x1(1)</title><ellipse cx="68.424" cy="-192" fill="none" stroke="#000" rx="29.795" ry="18"/><text x="68.424" y="-188.3" font-family="Times New Roman,serif" font-size="14" text-anchor="middle">x1(1)</text></g><g id="edge1" class="edge"><title>x1(1)-&gt;x0(1)</title><path fill="none" stroke="#000" d="M49.8161,-177.792C34.3672,-165.584 13.508,-145.907 4.42375,-123 -1.47458,-108.127 -1.47458,-101.873 4.42375,-87 12.0176,-67.8515 27.8397,-50.9593 41.8513,-38.801"/><polygon fill="#000" stroke="#000" points="44.344 -41.281 49.816 -32.208 39.881 -35.889 44.344 -41.281"/><text x="16.924" y="-101.3" font-family="Times New Roman,serif" font-size="14" text-anchor="middle">0.20</text></g><g id="node3" class="node"><title>x2(1)</title><ellipse cx="68.424" cy="-105" fill="none" stroke="#000" rx="29.795" ry="18"/><text x="68.424" y="-101.3" font-family="Times New Roman,serif" font-size="14" text-anchor="middle">x2(1)</text></g><g id="edge5" class="edge"><title>x1(1)-&gt;x2(1)</title><path fill="none" stroke="#000" d="M68.4238,-173.799C68.4238,-162.163 68.4238,-146.548 68.4238,-133.237"/><polygon fill="#000" stroke="#000" points="71.924 -133.175 68.424 -123.175 64.924 -133.175 71.924 -133.175"/><text x="80.924" y="-144.8" font-family="Times New Roman,serif" font-size="14" text-anchor="middle">0.30</text></g><g id="node5" class="node"><title>x4(1)</title><ellipse cx="146.424" cy="-105" fill="none" stroke="#000" rx="29.795" ry="18"/><text x="146.424" y="-101.3" font-family="Times New Roman,serif" font-size="14" text-anchor="middle">x4(1)</text></g><g id="edge6" class="edge"><title>x1(1)-&gt;x4(1)</title><path fill="none" stroke="#000" d="M82.3686,-175.804C94.4587,-162.629 112.12,-143.383 125.836,-128.435"/><polygon fill="#000" stroke="#000" points="128.417 -130.799 132.6 -121.065 123.26 -126.066 128.417 -130.799"/><text x="126.924" y="-144.8" font-family="Times New Roman,serif" font-size="14" text-anchor="middle">-0.40</text></g><g id="edge2" class="edge"><title>x2(1)-&gt;x0(1)</title><path fill="none" stroke="#000" d="M68.4238,-86.799C68.4238,-75.1626 68.4238,-59.5479 68.4238,-46.2368"/><polygon fill="#000" stroke="#000" points="71.924 -46.175 68.424 -36.175 64.924 -46.175 71.924 -46.175"/><text x="82.924" y="-57.8" font-family="Times New Roman,serif" font-size="14" text-anchor="middle">-0.10</text></g><g id="node4" class="node"><title>x3(1)</title><ellipse cx="68.424" cy="-279" fill="none" stroke="#000" rx="29.795" ry="18"/><text x="68.424" y="-275.3" font-family="Times New Roman,serif" font-size="14" text-anchor="middle">x3(1)</text></g><g id="edge4" class="edge"><title>x3(1)-&gt;x1(1)</title><path fill="none" stroke="#000" d="M68.4238,-260.799C68.4238,-249.163 68.4238,-233.548 68.4238,-220.237"/><polygon fill="#000" stroke="#000" points="71.924 -220.175 68.424 -210.175 64.924 -220.175 71.924 -220.175"/><text x="80.924" y="-231.8" font-family="Times New Roman,serif" font-size="14" text-anchor="middle">0.40</text></g><g id="edge3" class="edge"><title>x4(1)-&gt;x0(1)</title><path fill="none" stroke="#000" d="M132.729,-88.5986C123.859,-78.6697 112.027,-65.5098 101.424,-54 97.6044,-49.8539 93.5048,-45.4609 89.5385,-41.2395"/><polygon fill="#000" stroke="#000" points="92.04 -38.79 82.632 -33.917 86.947 -43.593 92.04 -38.79"/><text x="128.924" y="-57.8" font-family="Times New Roman,serif" font-size="14" text-anchor="middle">-0.50</text></g></g></svg>