<svg xmlns="http://www.w3.org/2000/svg" xmlns:xlink="http://www.w3.org/1999/xlink" width="278pt" height="218pt" viewBox="0 0 278 218"><g id="graph0" class="graph" transform="scale(1 1) rotate(0) translate(4 214)"><title>%3</title><polygon fill="#fff" stroke="none" points="-4 4 -4 -214 274 -214 274 4 -4 4"/><g id="node1" class="node"><title>x0</title><ellipse cx="99" cy="-105" fill="none" stroke="#000" rx="27" ry="18"/><text x="99" y="-101.3" font-family="Times New Roman,serif" font-size="14" text-anchor="middle">x0</text></g><g id="node2" class="node"><title>x1</title><ellipse cx="223" cy="-18" fill="none" stroke="#000" rx="27" ry="18"/><text x="223" y="-14.3" font-family="Times New Roman,serif" font-size="14" text-anchor="middle">x1</text></g><g id="edge2" class="edge"><title>x0-&gt;x1</title><path fill="none" stroke="#000" d="M105.257,-87.13C110.022,-76.345 117.554,-62.7826 128,-54 137.535,-45.9832 165.638,-36.1135 188.822,-28.9008"/><polygon fill="#000" stroke="#000" points="189.843 -32.249 198.388 -25.985 187.802 -25.553 189.843 -32.249"/><text x="140.5" y="-57.8" font-family="Times New Roman,serif" font-size="14" text-anchor="middle">3.52</text></g><g id="node5" class="node"><title>x4</title><ellipse cx="125" cy="-18" fill="none" stroke="#000" rx="27" ry="18"/><text x="125" y="-14.3" font-family="Times New Roman,serif" font-size="14" text-anchor="middle">x4</text></g><g id="edge6" class="edge"><title>x0-&gt;x4</title><path fill="none" stroke="#000" d="M84.9992,-89.3967C77.1213,-79.3378 69.9664,-65.7244 76,-54 80.1259,-45.9826 87.0337,-39.3946 94.3805,-34.183"/><polygon fill="#000" stroke="#000" points="96.483 -36.995 103.066 -28.694 92.743 -31.078 96.483 -36.995"/><text x="88.5" y="-57.8" font-family="Times New Roman,serif" font-size="14" text-anchor="middle">8.46</text></g><g id="node6" class="node"><title>x5</title><ellipse cx="27" cy="-18" fill="none" stroke="#000" rx="27" ry="18"/><text x="27" y="-14.3" font-family="Times New Roman,serif" font-size="14" text-anchor="middle">x5</text></g><g id="edge8" class="edge"><title>x0-&gt;x5</title><path fill="none" stroke="#000" d="M76.8533,-94.3394C65.6328,-88.4545 52.6001,-79.9471 44,-69 38.743,-62.3084 35.0634,-53.8968 32.5083,-45.8919"/><polygon fill="#000" stroke="#000" points="35.853 -44.853 29.839 -36.13 29.101 -46.699 35.853 -44.853"/><text x="56.5" y="-57.8" font-family="Times New Roman,serif" font-size="14" text-anchor="middle">4.45</text></g><g id="node3" class="node"><title>x2</title><ellipse cx="198" cy="-105" fill="none" stroke="#000" rx="27" ry="18"/><text x="198" y="-101.3" font-family="Times New Roman,serif" font-size="14" text-anchor="middle">x2</text></g><g id="edge3" class="edge"><title>x2-&gt;x1</title><path fill="none" stroke="#000" d="M202.939,-87.2067C206.432,-75.332 211.186,-59.1684 215.189,-45.5567"/><polygon fill="#000" stroke="#000" points="218.607 -46.34 218.071 -35.758 211.892 -44.364 218.607 -46.34"/><text x="223.5" y="-57.8" font-family="Times New Roman,serif" font-size="14" text-anchor="middle">2.47</text></g><g id="edge7" class="edge"><title>x2-&gt;x4</title><path fill="none" stroke="#000" d="M184.949,-88.8037C173.738,-75.7495 157.408,-56.7354 144.622,-41.8473"/><polygon fill="#000" stroke="#000" points="147.108 -39.371 137.938 -34.065 141.798 -43.931 147.108 -39.371"/><text x="179.5" y="-57.8" font-family="Times New Roman,serif" font-size="14" text-anchor="middle">-1.47</text></g><g id="node4" class="node"><title>x3</title><ellipse cx="198" cy="-192" fill="none" stroke="#000" rx="27" ry="18"/><text x="198" y="-188.3" font-family="Times New Roman,serif" font-size="14" text-anchor="middle">x3</text></g><g id="edge1" class="edge"><title>x3-&gt;x0</title><path fill="none" stroke="#000" d="M182.094,-177.343C166.073,-163.588 141.163,-142.2 122.792,-126.427"/><polygon fill="#000" stroke="#000" points="124.734 -123.482 114.867 -119.623 120.174 -128.793 124.734 -123.482"/><text x="166.5" y="-144.8" font-family="Times New Roman,serif" font-size="14" text-anchor="middle">3.48</text></g><g id="edge4" class="edge"><title>x3-&gt;x1</title><path fill="none" stroke="#000" d="M212.45,-176.789C217.76,-170.825 223.358,-163.53 227,-156 246.897,-114.859 250.244,-98.5371 240,-54 239.258,-50.7742 238.177,-47.5009 236.915,-44.3167"/><polygon fill="#000" stroke="#000" points="240.075 -42.81 232.738 -35.167 233.707 -45.717 240.075 -42.81"/><text x="257.5" y="-101.3" font-family="Times New Roman,serif" font-size="14" text-anchor="middle">0.17</text></g><g id="edge5" class="edge"><title>x3-&gt;x2</title><path fill="none" stroke="#000" d="M198,-173.799C198,-162.163 198,-146.548 198,-133.237"/><polygon fill="#000" stroke="#000" points="201.5 -133.175 198 -123.175 194.5 -133.175 201.5 -133.175"/><text x="210.5" y="-144.8" font-family="Times New Roman,serif" font-size="14" text-anchor="middle">6.38</text></g></g></svg>