<svg xmlns="http://www.w3.org/2000/svg" xmlns:xlink="http://www.w3.org/1999/xlink" width="224pt" height="218pt" viewBox="0 0 224 218"><g id="graph0" class="graph" transform="scale(1 1) rotate(0) translate(4 214)"><title>%3</title><polygon fill="#fff" stroke="none" points="-4 4 -4 -214 220 -214 220 4 -4 4"/><g id="node1" class="node"><title>x0</title><ellipse cx="105" cy="-105" fill="none" stroke="#000" rx="27" ry="18"/><text x="105" y="-101.3" font-family="Times New Roman,serif" font-size="14" text-anchor="middle">x0</text></g><g id="node2" class="node"><title>x1</title><ellipse cx="183" cy="-18" fill="none" stroke="#000" rx="27" ry="18"/><text x="183" y="-14.3" font-family="Times New Roman,serif" font-size="14" text-anchor="middle">x1</text></g><g id="edge2" class="edge"><title>x0-&gt;x1</title><path fill="none" stroke="#000" d="M118.587,-89.1941C130.778,-75.9087 148.837,-56.2284 162.734,-41.0842"/><polygon fill="#000" stroke="#000" points="165.387 -43.371 169.569 -33.636 160.229 -38.638 165.387 -43.371"/><text x="160.5" y="-57.8" font-family="Times New Roman,serif" font-size="14" text-anchor="middle">2.87</text></g><g id="node5" class="node"><title>x4</title><ellipse cx="27" cy="-18" fill="none" stroke="#000" rx="27" ry="18"/><text x="27" y="-14.3" font-family="Times New Roman,serif" font-size="14" text-anchor="middle">x4</text></g><g id="edge5" class="edge"><title>x0-&gt;x4</title><path fill="none" stroke="#000" d="M90.1055,-89.5953C83.7944,-83.367 76.4283,-75.9303 70,-69 61.9755,-60.3489 53.4429,-50.5596 46.1118,-41.9507"/><polygon fill="#000" stroke="#000" points="48.635 -39.514 39.507 -34.134 43.288 -44.031 48.635 -39.514"/><text x="82.5" y="-57.8" font-family="Times New Roman,serif" font-size="14" text-anchor="middle">6.09</text></g><g id="node6" class="node"><title>x5</title><ellipse cx="99" cy="-18" fill="none" stroke="#000" rx="27" ry="18"/><text x="99" y="-14.3" font-family="Times New Roman,serif" font-size="14" text-anchor="middle">x5</text></g><g id="edge6" class="edge"><title>x0-&gt;x5</title><path fill="none" stroke="#000" d="M102.14,-86.9569C101.299,-81.2635 100.476,-74.8733 100,-69 99.4057,-61.674 99.0951,-53.7255 98.9455,-46.3673"/><polygon fill="#000" stroke="#000" points="102.443 -46.109 98.827 -36.15 95.443 -46.19 102.443 -46.109"/><text x="112.5" y="-57.8" font-family="Times New Roman,serif" font-size="14" text-anchor="middle">3.97</text></g><g id="node3" class="node"><title>x2</title><ellipse cx="189" cy="-105" fill="none" stroke="#000" rx="27" ry="18"/><text x="189" y="-101.3" font-family="Times New Roman,serif" font-size="14" text-anchor="middle">x2</text></g><g id="edge3" class="edge"><title>x2-&gt;x1</title><path fill="none" stroke="#000" d="M187.786,-86.799C186.964,-75.1626 185.862,-59.5479 184.923,-46.2368"/><polygon fill="#000" stroke="#000" points="188.408 -45.904 184.212 -36.175 181.425 -46.397 188.408 -45.904"/><text x="198.5" y="-57.8" font-family="Times New Roman,serif" font-size="14" text-anchor="middle">1.97</text></g><g id="node4" class="node"><title>x3</title><ellipse cx="151" cy="-192" fill="none" stroke="#000" rx="27" ry="18"/><text x="151" y="-188.3" font-family="Times New Roman,serif" font-size="14" text-anchor="middle">x3</text></g><g id="edge1" class="edge"><title>x3-&gt;x0</title><path fill="none" stroke="#000" d="M142.131,-174.611C135.47,-162.303 126.228,-145.226 118.631,-131.187"/><polygon fill="#000" stroke="#000" points="121.524 -129.179 113.686 -122.05 115.367 -132.511 121.524 -129.179"/><text x="142.5" y="-144.8" font-family="Times New Roman,serif" font-size="14" text-anchor="middle">3.01</text></g><g id="edge4" class="edge"><title>x3-&gt;x2</title><path fill="none" stroke="#000" d="M158.327,-174.611C163.741,-162.499 171.221,-145.768 177.439,-131.86"/><polygon fill="#000" stroke="#000" points="180.81 -132.896 181.696 -122.339 174.419 -130.039 180.81 -132.896"/><text x="184.5" y="-144.8" font-family="Times New Roman,serif" font-size="14" text-anchor="middle">5.88</text></g></g></svg>