<svg xmlns="http://www.w3.org/2000/svg" xmlns:xlink="http://www.w3.org/1999/xlink" width="304pt" height="479pt" viewBox="0 0 304 479"><g id="graph0" class="graph" transform="scale(1 1) rotate(0) translate(4 475)"><title>%3</title><polygon fill="#fff" stroke="none" points="-4 4 -4 -475 300 -475 300 4 -4 4"/><g id="node1" class="node"><title>x0</title><ellipse cx="81" cy="-105" fill="none" stroke="#000" rx="27" ry="18"/><text x="81" y="-101.3" font-family="Times New Roman,serif" font-size="14" text-anchor="middle">x0</text></g><g id="node5" class="node"><title>x4</title><ellipse cx="223" cy="-18" fill="none" stroke="#000" rx="27" ry="18"/><text x="223" y="-14.3" font-family="Times New Roman,serif" font-size="14" text-anchor="middle">x4</text></g><g id="edge9" class="edge"><title>x0-&gt;x4</title><path fill="none" stroke="#000" d="M100.447,-92.3593C124.741,-77.8168 166.508,-52.8156 194.437,-36.0977"/><polygon fill="#000" stroke="#000" points="196.55 -38.912 203.332 -30.773 192.955 -32.906 196.55 -38.912"/><text x="173.5" y="-57.8" font-family="Times New Roman,serif" font-size="14" text-anchor="middle">8.98</text></g><g id="node2" class="node"><title>x1</title><ellipse cx="167" cy="-453" fill="none" stroke="#000" rx="27" ry="18"/><text x="167" y="-449.3" font-family="Times New Roman,serif" font-size="14" text-anchor="middle">x1</text></g><g id="edge1" class="edge"><title>x1-&gt;x0</title><path fill="none" stroke="#000" d="M140.169,-450.361C92.9615,-445.87 0,-429.137 0,-367 0,-367 0,-367 0,-191 0,-160.408 27.8381,-136.471 50.8746,-121.901"/><polygon fill="#000" stroke="#000" points="52.94 -124.744 59.718 -116.6 49.342 -118.74 52.94 -124.744"/><text x="14.5" y="-275.3" font-family="Times New Roman,serif" font-size="14" text-anchor="middle">-0.03</text></g><g id="node3" class="node"><title>x2</title><ellipse cx="212" cy="-279" fill="none" stroke="#000" rx="27" ry="18"/><text x="212" y="-275.3" font-family="Times New Roman,serif" font-size="14" text-anchor="middle">x2</text></g><g id="edge4" class="edge"><title>x1-&gt;x2</title><path fill="none" stroke="#000" d="M174.239,-435.459C176.597,-429.689 179.095,-423.124 181,-417 192.636,-379.586 201.877,-335.17 207.146,-307.279"/><polygon fill="#000" stroke="#000" points="210.651 -307.571 209.031 -297.1 203.768 -306.296 210.651 -307.571"/><text x="211.5" y="-362.3" font-family="Times New Roman,serif" font-size="14" text-anchor="middle">0.32</text></g><g id="node4" class="node"><title>x3</title><ellipse cx="135" cy="-192" fill="none" stroke="#000" rx="27" ry="18"/><text x="135" y="-188.3" font-family="Times New Roman,serif" font-size="14" text-anchor="middle">x3</text></g><g id="edge6" class="edge"><title>x1-&gt;x3</title><path fill="none" stroke="#000" d="M164.9,-435.006C159.476,-391.102 144.958,-273.6 138.354,-220.147"/><polygon fill="#000" stroke="#000" points="141.807 -219.552 137.107 -210.056 134.86 -220.41 141.807 -219.552"/><text x="166.5" y="-318.8" font-family="Times New Roman,serif" font-size="14" text-anchor="middle">-0.02</text></g><g id="edge10" class="edge"><title>x1-&gt;x4</title><path fill="none" stroke="#000" d="M190.446,-443.934C220.003,-432.097 267,-406.988 267,-367 267,-367 267,-367 267,-104 267,-81.1466 254.301,-58.3159 242.547,-42.0793"/><polygon fill="#000" stroke="#000" points="245.056 -39.598 236.201 -33.779 239.495 -43.849 245.056 -39.598"/><text x="281.5" y="-231.8" font-family="Times New Roman,serif" font-size="14" text-anchor="middle">-0.25</text></g><g id="node6" class="node"><title>x5</title><ellipse cx="97" cy="-366" fill="none" stroke="#000" rx="27" ry="18"/><text x="97" y="-362.3" font-family="Times New Roman,serif" font-size="14" text-anchor="middle">x5</text></g><g id="edge12" class="edge"><title>x1-&gt;x5</title><path fill="none" stroke="#000" d="M150.073,-438.651C142.825,-432.487 134.542,-424.812 128,-417 121.711,-409.49 115.783,-400.59 110.828,-392.395"/><polygon fill="#000" stroke="#000" points="113.737 -390.434 105.681 -383.554 107.688 -393.957 113.737 -390.434"/><text x="140.5" y="-405.8" font-family="Times New Roman,serif" font-size="14" text-anchor="middle">0.56</text></g><g id="edge7" class="edge"><title>x2-&gt;x3</title><path fill="none" stroke="#000" d="M198.588,-263.194C186.626,-249.99 168.942,-230.468 155.257,-215.362"/><polygon fill="#000" stroke="#000" points="157.825 -212.983 148.517 -207.921 152.637 -217.682 157.825 -212.983"/><text x="191.5" y="-231.8" font-family="Times New Roman,serif" font-size="14" text-anchor="middle">0.19</text></g><g id="edge11" class="edge"><title>x2-&gt;x4</title><path fill="none" stroke="#000" d="M212.722,-261.006C214.586,-217.102 219.577,-99.5997 221.847,-46.1469"/><polygon fill="#000" stroke="#000" points="225.348 -46.196 222.276 -36.056 218.354 -45.899 225.348 -46.196"/><text x="232.5" y="-144.8" font-family="Times New Roman,serif" font-size="14" text-anchor="middle">-0.66</text></g><g id="edge2" class="edge"><title>x3-&gt;x0</title><path fill="none" stroke="#000" d="M124.843,-175.012C116.923,-162.546 105.785,-145.013 96.7168,-130.739"/><polygon fill="#000" stroke="#000" points="99.428 -128.48 91.111 -121.916 93.52 -132.234 99.428 -128.48"/><text x="124.5" y="-144.8" font-family="Times New Roman,serif" font-size="14" text-anchor="middle">0.99</text></g><g id="edge3" class="edge"><title>x5-&gt;x0</title><path fill="none" stroke="#000" d="M95.9502,-348.006C93.2379,-304.102 85.9791,-186.6 82.677,-133.147"/><polygon fill="#000" stroke="#000" points="86.164 -132.821 82.054 -123.056 79.177 -133.253 86.164 -132.821"/><text x="102.5" y="-231.8" font-family="Times New Roman,serif" font-size="14" text-anchor="middle">0.22</text></g><g id="edge5" class="edge"><title>x5-&gt;x2</title><path fill="none" stroke="#000" d="M99.7971,-347.711C102.351,-337.029 107.142,-323.739 116,-315 132.023,-299.192 155.746,-290.456 175.6,-285.665"/><polygon fill="#000" stroke="#000" points="176.537 -289.043 185.568 -283.503 175.053 -282.202 176.537 -289.043"/><text x="130.5" y="-318.8" font-family="Times New Roman,serif" font-size="14" text-anchor="middle">-0.17</text></g><g id="edge8" class="edge"><title>x5-&gt;x3</title><path fill="none" stroke="#000" d="M98.4778,-347.786C99.4558,-338.103 100.941,-325.822 103,-315 109.337,-281.684 119.719,-244.027 126.932,-219.475"/><polygon fill="#000" stroke="#000" points="130.311 -220.389 129.808 -209.806 123.602 -218.393 130.311 -220.389"/><text x="128.5" y="-275.3" font-family="Times New Roman,serif" font-size="14" text-anchor="middle">0.03</text></g></g></svg>