<svg xmlns="http://www.w3.org/2000/svg" xmlns:xlink="http://www.w3.org/1999/xlink" width="304" height="260pt" viewBox="0 0 228.45 260"><g id="graph0" class="graph" transform="scale(1 1) rotate(0) translate(4 256)"><title>%3</title><polygon fill="#fff" stroke="none" points="-4 4 -4 -256 224.454 -256 224.454 4 -4 4"/><g id="node1" class="node"><title>x0</title><ellipse cx="121.454" cy="-18" fill="none" stroke="#000" rx="27" ry="18"/><text x="121.454" y="-14.3" font-family="Times New Roman,serif" font-size="14" text-anchor="middle">x0</text></g><g id="node2" class="node"><title>x1</title><ellipse cx="193.454" cy="-18" fill="none" stroke="#000" rx="27" ry="18"/><text x="193.454" y="-14.3" font-family="Times New Roman,serif" font-size="14" text-anchor="middle">x1</text></g><g id="node3" class="node"><title>x2</title><ellipse cx="103.454" cy="-234" fill="none" stroke="#000" rx="27" ry="18"/><text x="103.454" y="-230.3" font-family="Times New Roman,serif" font-size="14" text-anchor="middle">x2</text></g><g id="edge1" class="edge"><title>x2-&gt;x0</title><path fill="none" stroke="#000" stroke-dasharray="5 2" d="M117.204,-218.069C125.415,-208.1 135.073,-194.247 139.454,-180 153.553,-134.153 140.878,-77.9389 130.846,-45.5177"/><polygon fill="#000" stroke="#000" points="134.131 -44.304 127.718 -35.871 127.473 -46.463 134.131 -44.304"/></g><g id="edge4" class="edge"><title>x2-&gt;x1</title><path fill="none" stroke="#000" stroke-dasharray="5 2" d="M120.442,-219.951C132.007,-210.173 146.741,-195.804 155.454,-180 179.122,-137.067 188.122,-79.804 191.492,-46.4114"/><polygon fill="#000" stroke="#000" points="195.014 -46.333 192.432 -36.057 188.042 -45.7 195.014 -46.333"/></g><g id="node4" class="node"><title>x3</title><ellipse cx="103.454" cy="-162" fill="none" stroke="#000" rx="27" ry="18"/><text x="103.454" y="-158.3" font-family="Times New Roman,serif" font-size="14" text-anchor="middle">x3</text></g><g id="edge9" class="edge"><title>x2-&gt;x3</title><path fill="none" stroke="#000" stroke-dasharray="5 2" d="M97.6142,-216.411C96.7516,-208.507 96.5022,-198.852 96.866,-189.935"/><polygon fill="#000" stroke="#000" points="100.357 -190.179 97.575 -179.956 93.375 -189.683 100.357 -190.179"/></g><g id="node5" class="node"><title>x4</title><ellipse cx="39.454" cy="-18" fill="none" stroke="#000" rx="27" ry="18"/><text x="39.454" y="-14.3" font-family="Times New Roman,serif" font-size="14" text-anchor="middle">x4</text></g><g id="edge11" class="edge"><title>x2-&gt;x4</title><path fill="none" stroke="#000" stroke-dasharray="5 2" d="M86.3048,-219.55C61.5689,-198.819 17.3216,-156.353 3.45413,-108 -0.956794,-92.62 -1.24867,-87.2933 3.45413,-72 6.73989,-61.3149 12.994,-50.851 19.3796,-42.0814"/><polygon fill="#000" stroke="#000" points="22.338 -43.977 25.704 -33.931 16.808 -39.686 22.338 -43.977"/></g><g id="node6" class="node"><title>x5</title><ellipse cx="39.454" cy="-90" fill="none" stroke="#000" rx="27" ry="18"/><text x="39.454" y="-86.3" font-family="Times New Roman,serif" font-size="14" text-anchor="middle">x5</text></g><g id="edge14" class="edge"><title>x2-&gt;x5</title><path fill="none" stroke="#000" stroke-dasharray="5 2" d="M85.814,-220.15C76.243,-209.801 65.5287,-194.618 58.4541,-180 48.8257,-160.105 41.5064,-136.133 38.1332,-118.083"/><polygon fill="#000" stroke="#000" points="41.556 -117.314 36.586 -107.957 34.637 -118.371 41.556 -117.314"/></g><g id="edge2" class="edge"><title>x3-&gt;x0</title><path fill="none" stroke="#000" stroke-dasharray="5 2" d="M105.625,-143.871C108.693,-119.67 114.329,-75.2108 117.982,-46.3932"/><polygon fill="#000" stroke="#000" points="121.49 -46.55 119.275 -36.189 114.545 -45.67 121.49 -46.55"/></g><g id="edge5" class="edge"><title>x3-&gt;x1</title><path fill="none" stroke="#000" stroke-dasharray="5 2" d="M113.43,-145.261C129.04,-120.631 159.367,-72.7827 177.874,-43.582"/><polygon fill="#000" stroke="#000" points="181.037 -45.13 183.434 -34.809 175.124 -41.382 181.037 -45.13"/></g><g id="edge7" class="edge"><title>x3-&gt;x2</title><path fill="none" stroke="#000" stroke-dasharray="5 2" d="M109.334,-179.956C110.168,-187.827 110.403,-197.374 110.037,-206.187"/><polygon fill="#000" stroke="#000" points="106.528 -206.184 109.294 -216.411 113.51 -206.691 106.528 -206.184"/></g><g id="edge12" class="edge"><title>x3-&gt;x4</title><path fill="none" stroke="#000" stroke-dasharray="5 2" d="M99.6883,-144.043C95.2629,-125.712 87.0264,-95.9117 75.4541,-72 70.5843,-61.9375 63.9898,-51.6074 57.7753,-42.7707"/><polygon fill="#000" stroke="#000" points="60.474 -40.531 51.766 -34.497 54.811 -44.645 60.474 -40.531"/></g><g id="edge15" class="edge"><title>x3-&gt;x5</title><path fill="none" stroke="#000" stroke-dasharray="5 2" d="M86.0048,-147.834C76.263,-138.618 64.418,-126.041 55.0039,-115.06"/><polygon fill="#000" stroke="#000" points="57.437 -112.511 48.354 -107.057 52.053 -116.985 57.437 -112.511"/></g><g id="edge3" class="edge"><title>x5-&gt;x0</title><path fill="none" stroke="#000" stroke-dasharray="5 2" d="M55.6547,-75.1703C67.6369,-64.9415 84.1456,-50.8487 97.6292,-39.3383"/><polygon fill="#000" stroke="#000" points="100.233 -41.718 105.566 -32.563 95.688 -36.394 100.233 -41.718"/></g><g id="edge6" class="edge"><title>x5-&gt;x1</title><path fill="none" stroke="#000" stroke-dasharray="5 2" d="M61.2587,-79.3553C84.9832,-68.8266 124.002,-51.4093 157.454,-36 159.243,-35.1758 161.08,-34.3245 162.932,-33.4622"/><polygon fill="#000" stroke="#000" points="164.596 -36.548 172.165 -29.135 161.625 -30.21 164.596 -36.548"/></g><g id="edge8" class="edge"><title>x5-&gt;x2</title><path fill="none" stroke="#000" stroke-dasharray="5 2" d="M49.4824,-106.963C56.3451,-125.196 64.6702,-155.651 76.4541,-180 81.009,-189.412 87.0726,-199.057 92.4774,-207.496"/><polygon fill="#000" stroke="#000" points="89.648 -209.569 97.981 -216.112 95.547 -205.8 89.648 -209.569"/></g><g id="edge10" class="edge"><title>x5-&gt;x3</title><path fill="none" stroke="#000" stroke-dasharray="5 2" d="M57.0775,-104.331C66.7508,-113.498 78.461,-125.934 87.8024,-136.821"/><polygon fill="#000" stroke="#000" points="85.325 -139.316 94.411 -144.765 90.706 -134.839 85.325 -139.316"/></g><g id="edge13" class="edge"><title>x5-&gt;x4</title><path fill="none" stroke="#000" stroke-dasharray="5 2" d="M39.4541,-71.6966C39.4541,-63.9827 39.4541,-54.7125 39.4541,-46.1124"/><polygon fill="#000" stroke="#000" points="42.954 -46.104 39.454 -36.104 35.954 -46.104 42.954 -46.104"/></g></g></svg>