<svg xmlns="http://www.w3.org/2000/svg" xmlns:xlink="http://www.w3.org/1999/xlink" width="278pt" height="218pt" viewBox="0 0 278 218"><g id="graph0" class="graph" transform="scale(1 1) rotate(0) translate(4 214)"><title>%3</title><polygon fill="#fff" stroke="none" points="-4 4 -4 -214 274 -214 274 4 -4 4"/><g id="node1" class="node"><title>x0</title><ellipse cx="27" cy="-18" fill="none" stroke="#000" rx="27" ry="18"/><text x="27" y="-14.3" font-family="Times New Roman,serif" font-size="14" text-anchor="middle">x0</text></g><g id="node2" class="node"><title>x1</title><ellipse cx="237" cy="-18" fill="none" stroke="#000" rx="27" ry="18"/><text x="237" y="-14.3" font-family="Times New Roman,serif" font-size="14" text-anchor="middle">x1</text></g><g id="node3" class="node"><title>x2</title><ellipse cx="185" cy="-105" fill="none" stroke="#000" rx="27" ry="18"/><text x="185" y="-101.3" font-family="Times New Roman,serif" font-size="14" text-anchor="middle">x2</text></g><g id="edge3" class="edge"><title>x2-&gt;x1</title><path fill="none" stroke="#000" d="M199.176,-89.4283C204.563,-83.4152 210.483,-76.1804 215,-69 219.616,-61.6626 223.741,-53.1905 227.136,-45.3295"/><polygon fill="#000" stroke="#000" points="230.475 -46.411 231.029 -35.83 223.998 -43.756 230.475 -46.411"/><text x="234.5" y="-57.8" font-family="Times New Roman,serif" font-size="14" text-anchor="middle">2.01</text></g><g id="node5" class="node"><title>x4</title><ellipse cx="103" cy="-18" fill="none" stroke="#000" rx="27" ry="18"/><text x="103" y="-14.3" font-family="Times New Roman,serif" font-size="14" text-anchor="middle">x4</text></g><g id="edge7" class="edge"><title>x2-&gt;x4</title><path fill="none" stroke="#000" d="M180.538,-87.2166C177.093,-76.7364 171.462,-63.4815 163,-54 155.192,-45.2513 144.66,-38.0993 134.599,-32.5931"/><polygon fill="#000" stroke="#000" points="136.083 -29.421 125.583 -28 132.905 -35.658 136.083 -29.421"/><text x="186.5" y="-57.8" font-family="Times New Roman,serif" font-size="14" text-anchor="middle">-0.76</text></g><g id="node4" class="node"><title>x3</title><ellipse cx="141" cy="-192" fill="none" stroke="#000" rx="27" ry="18"/><text x="141" y="-188.3" font-family="Times New Roman,serif" font-size="14" text-anchor="middle">x3</text></g><g id="edge1" class="edge"><title>x3-&gt;x0</title><path fill="none" stroke="#000" d="M117.728,-182.599C93.394,-172.488 56.2578,-153.026 38,-123 23.9755,-99.936 22.5304,-68.5847 23.7839,-46.3506"/><polygon fill="#000" stroke="#000" points="27.284 -46.486 24.573 -36.244 20.305 -45.942 27.284 -46.486"/><text x="50.5" y="-101.3" font-family="Times New Roman,serif" font-size="14" text-anchor="middle">0.18</text></g><g id="edge4" class="edge"><title>x3-&gt;x1</title><path fill="none" stroke="#000" d="M160.9,-179.834C171.304,-173.523 183.933,-165.089 194,-156 228.312,-125.023 239.404,-113.749 251,-69 253.067,-61.0237 251.873,-52.3689 249.483,-44.5371"/><polygon fill="#000" stroke="#000" points="252.759 -43.305 245.972 -35.17 246.205 -45.762 252.759 -43.305"/><text x="257.5" y="-101.3" font-family="Times New Roman,serif" font-size="14" text-anchor="middle">0.45</text></g><g id="edge6" class="edge"><title>x3-&gt;x2</title><path fill="none" stroke="#000" d="M149.484,-174.611C155.814,-162.382 164.582,-145.443 171.823,-131.456"/><polygon fill="#000" stroke="#000" points="175.054 -132.828 176.542 -122.339 168.837 -129.61 175.054 -132.828"/><text x="177.5" y="-144.8" font-family="Times New Roman,serif" font-size="14" text-anchor="middle">6.00</text></g><g id="node6" class="node"><title>x5</title><ellipse cx="99" cy="-105" fill="none" stroke="#000" rx="27" ry="18"/><text x="99" y="-101.3" font-family="Times New Roman,serif" font-size="14" text-anchor="middle">x5</text></g><g id="edge9" class="edge"><title>x3-&gt;x5</title><path fill="none" stroke="#000" d="M132.902,-174.611C126.859,-162.382 118.489,-145.443 111.578,-131.456"/><polygon fill="#000" stroke="#000" points="114.641 -129.753 107.073 -122.339 108.365 -132.854 114.641 -129.753"/><text x="137.5" y="-144.8" font-family="Times New Roman,serif" font-size="14" text-anchor="middle">12.02</text></g><g id="edge2" class="edge"><title>x5-&gt;x0</title><path fill="none" stroke="#000" d="M82.6847,-90.4557C75.6555,-84.2561 67.5619,-76.6061 61,-69 54.2522,-61.1784 47.6682,-51.9818 42.1191,-43.6232"/><polygon fill="#000" stroke="#000" points="44.909 -41.491 36.545 -34.987 39.027 -45.287 44.909 -41.491"/><text x="73.5" y="-57.8" font-family="Times New Roman,serif" font-size="14" text-anchor="middle">0.23</text></g><g id="edge5" class="edge"><title>x5-&gt;x1</title><path fill="none" stroke="#000" d="M106.999,-87.5182C113.048,-76.6209 122.305,-62.7772 134,-54 153.602,-39.2892 179.796,-30.499 200.864,-25.4071"/><polygon fill="#000" stroke="#000" points="201.749 -28.796 210.743 -23.195 200.22 -21.965 201.749 -28.796"/><text x="146.5" y="-57.8" font-family="Times New Roman,serif" font-size="14" text-anchor="middle">0.71</text></g><g id="edge8" class="edge"><title>x5-&gt;x4</title><path fill="none" stroke="#000" d="M93.0023,-87.3337C90.2531,-77.6117 88.0031,-65.1117 90,-54 90.5267,-51.0693 91.283,-48.0634 92.1695,-45.1036"/><polygon fill="#000" stroke="#000" points="95.567 -45.99 95.541 -35.395 88.954 -43.694 95.567 -45.99"/><text x="102.5" y="-57.8" font-family="Times New Roman,serif" font-size="14" text-anchor="middle">1.88</text></g></g></svg>