<svg xmlns="http://www.w3.org/2000/svg" xmlns:xlink="http://www.w3.org/1999/xlink" width="223pt" height="305pt" viewBox="0 0 223 305"><g id="graph0" class="graph" transform="scale(1 1) rotate(0) translate(4 301)"><title>%3</title><polygon fill="#fff" stroke="none" points="-4 4 -4 -301 219 -301 219 4 -4 4"/><g id="node1" class="node"><title>x0</title><ellipse cx="112" cy="-279" fill="none" stroke="#000" rx="27" ry="18"/><text x="112" y="-275.3" font-family="Times New Roman,serif" font-size="14" text-anchor="middle">x0</text></g><g id="node2" class="node"><title>x1</title><ellipse cx="27" cy="-18" fill="none" stroke="#000" rx="27" ry="18"/><text x="27" y="-14.3" font-family="Times New Roman,serif" font-size="14" text-anchor="middle">x1</text></g><g id="edge1" class="edge"><title>x0-&gt;x1</title><path fill="none" stroke="#000" d="M93.1237,-265.698C76.4715,-253.684 53.1652,-233.77 42,-210 16.8375,-156.431 19.4073,-85.0554 23.3143,-46.5063"/><polygon fill="#000" stroke="#000" points="26.845 -46.427 24.485 -36.099 19.889 -45.645 26.845 -46.427"/><text x="38.5" y="-144.8" font-family="Times New Roman,serif" font-size="14" text-anchor="middle">3.00</text></g><g id="node4" class="node"><title>x3</title><ellipse cx="78" cy="-192" fill="none" stroke="#000" rx="27" ry="18"/><text x="78" y="-188.3" font-family="Times New Roman,serif" font-size="14" text-anchor="middle">x3</text></g><g id="edge4" class="edge"><title>x0-&gt;x3</title><path fill="none" stroke="#000" d="M103.005,-261.883C99.9308,-256.035 96.6127,-249.314 94,-243 90.8984,-235.505 88.0195,-227.178 85.5834,-219.503"/><polygon fill="#000" stroke="#000" points="88.923 -218.456 82.654 -209.915 82.229 -220.502 88.923 -218.456"/><text x="106.5" y="-231.8" font-family="Times New Roman,serif" font-size="14" text-anchor="middle">0.30</text></g><g id="node5" class="node"><title>x4</title><ellipse cx="103" cy="-18" fill="none" stroke="#000" rx="27" ry="18"/><text x="103" y="-14.3" font-family="Times New Roman,serif" font-size="14" text-anchor="middle">x4</text></g><g id="edge5" class="edge"><title>x0-&gt;x4</title><path fill="none" stroke="#000" d="M116.098,-261.012C117.283,-255.322 118.414,-248.92 119,-243 127.277,-159.409 136.871,-136.077 119,-54 118.325,-50.9011 117.351,-47.7481 116.211,-44.6675"/><polygon fill="#000" stroke="#000" points="119.323 -43.044 112.169 -35.229 112.888 -45.799 119.323 -43.044"/><text x="141.5" y="-144.8" font-family="Times New Roman,serif" font-size="14" text-anchor="middle">7.98</text></g><g id="node6" class="node"><title>x5</title><ellipse cx="188" cy="-192" fill="none" stroke="#000" rx="27" ry="18"/><text x="188" y="-188.3" font-family="Times New Roman,serif" font-size="14" text-anchor="middle">x5</text></g><g id="edge7" class="edge"><title>x0-&gt;x5</title><path fill="none" stroke="#000" d="M126.974,-263.668C133.299,-257.452 140.653,-250.005 147,-243 154.768,-234.426 162.926,-224.652 169.902,-216.033"/><polygon fill="#000" stroke="#000" points="172.656 -218.194 176.176 -208.201 167.192 -213.817 172.656 -218.194"/><text x="171.5" y="-231.8" font-family="Times New Roman,serif" font-size="14" text-anchor="middle">4.00</text></g><g id="node3" class="node"><title>x2</title><ellipse cx="78" cy="-105" fill="none" stroke="#000" rx="27" ry="18"/><text x="78" y="-101.3" font-family="Times New Roman,serif" font-size="14" text-anchor="middle">x2</text></g><g id="edge2" class="edge"><title>x2-&gt;x1</title><path fill="none" stroke="#000" d="M67.8036,-88.0441C64.0463,-82.0954 59.785,-75.2662 56,-69 51.1521,-60.9741 45.9798,-52.146 41.3657,-44.1706"/><polygon fill="#000" stroke="#000" points="44.281 -42.219 36.258 -35.299 38.214 -45.712 44.281 -42.219"/><text x="68.5" y="-57.8" font-family="Times New Roman,serif" font-size="14" text-anchor="middle">2.00</text></g><g id="edge6" class="edge"><title>x2-&gt;x4</title><path fill="none" stroke="#000" d="M81.6058,-86.7385C83.7652,-77.0408 86.7234,-64.7603 90,-54 90.8674,-51.1515 91.8421,-48.1982 92.8577,-45.2696"/><polygon fill="#000" stroke="#000" points="96.247 -46.189 96.371 -35.595 89.668 -43.8 96.247 -46.189"/><text x="104.5" y="-57.8" font-family="Times New Roman,serif" font-size="14" text-anchor="middle">-0.99</text></g><g id="edge3" class="edge"><title>x3-&gt;x2</title><path fill="none" stroke="#000" d="M78,-173.799C78,-162.163 78,-146.548 78,-133.237"/><polygon fill="#000" stroke="#000" points="81.5 -133.175 78 -123.175 74.5 -133.175 81.5 -133.175"/><text x="90.5" y="-144.8" font-family="Times New Roman,serif" font-size="14" text-anchor="middle">6.00</text></g></g></svg>