<svg xmlns="http://www.w3.org/2000/svg" xmlns:xlink="http://www.w3.org/1999/xlink" width="199pt" height="305pt" viewBox="0 0 199 305"><g id="graph0" class="graph" transform="scale(1 1) rotate(0) translate(4 301)"><title>%3</title><polygon fill="#fff" stroke="none" points="-4 4 -4 -301 195 -301 195 4 -4 4"/><g id="node1" class="node"><title>x0</title><ellipse cx="57" cy="-105" fill="none" stroke="#000" rx="27" ry="18"/><text x="57" y="-101.3" font-family="Times New Roman,serif" font-size="14" text-anchor="middle">x0</text></g><g id="node3" class="node"><title>x2</title><ellipse cx="73" cy="-18" fill="none" stroke="#000" rx="27" ry="18"/><text x="73" y="-14.3" font-family="Times New Roman,serif" font-size="14" text-anchor="middle">x2</text></g><g id="edge4" class="edge"><title>x0-&gt;x2</title><path fill="none" stroke="#000" d="M44.1451,-89.0931C37.1794,-79.137 30.9361,-65.7607 36,-54 38.4642,-48.277 42.3754,-43.0526 46.7502,-38.4861"/><polygon fill="#000" stroke="#000" points="49.4 -40.803 54.377 -31.45 44.654 -35.658 49.4 -40.803"/><text x="48.5" y="-57.8" font-family="Times New Roman,serif" font-size="14" text-anchor="middle">0.80</text></g><g id="node5" class="node"><title>x4</title><ellipse cx="164" cy="-18" fill="none" stroke="#000" rx="27" ry="18"/><text x="164" y="-14.3" font-family="Times New Roman,serif" font-size="14" text-anchor="middle">x4</text></g><g id="edge7" class="edge"><title>x0-&gt;x4</title><path fill="none" stroke="#000" d="M61.4124,-86.8119C64.9138,-76.1702 70.7835,-62.8875 80,-54 87.672,-46.6019 110.59,-37.2801 130.552,-30.1172"/><polygon fill="#000" stroke="#000" points="131.756 -33.404 140.035 -26.792 129.44 -26.798 131.756 -33.404"/><text x="92.5" y="-57.8" font-family="Times New Roman,serif" font-size="14" text-anchor="middle">1.00</text></g><g id="node2" class="node"><title>x1</title><ellipse cx="27" cy="-192" fill="none" stroke="#000" rx="27" ry="18"/><text x="27" y="-188.3" font-family="Times New Roman,serif" font-size="14" text-anchor="middle">x1</text></g><g id="edge1" class="edge"><title>x1-&gt;x0</title><path fill="none" stroke="#000" d="M32.927,-174.207C37.1181,-162.332 42.8229,-146.168 47.6271,-132.557"/><polygon fill="#000" stroke="#000" points="51.057 -133.353 51.085 -122.758 44.456 -131.023 51.057 -133.353"/><text x="56.5" y="-144.8" font-family="Times New Roman,serif" font-size="14" text-anchor="middle">1.00</text></g><g id="node4" class="node"><title>x3</title><ellipse cx="99" cy="-192" fill="none" stroke="#000" rx="27" ry="18"/><text x="99" y="-188.3" font-family="Times New Roman,serif" font-size="14" text-anchor="middle">x3</text></g><g id="edge2" class="edge"><title>x3-&gt;x0</title><path fill="none" stroke="#000" d="M90.902,-174.611C84.8592,-162.382 76.4894,-145.443 69.5783,-131.456"/><polygon fill="#000" stroke="#000" points="72.641 -129.753 65.073 -122.339 66.365 -132.854 72.641 -129.753"/><text x="92.5" y="-144.8" font-family="Times New Roman,serif" font-size="14" text-anchor="middle">1.00</text></g><g id="node6" class="node"><title>x5</title><ellipse cx="66" cy="-279" fill="none" stroke="#000" rx="27" ry="18"/><text x="66" y="-275.3" font-family="Times New Roman,serif" font-size="14" text-anchor="middle">x5</text></g><g id="edge3" class="edge"><title>x5-&gt;x1</title><path fill="none" stroke="#000" d="M58.4804,-261.611C52.8693,-249.382 45.0973,-232.443 38.6798,-218.456"/><polygon fill="#000" stroke="#000" points="41.848 -216.968 34.496 -209.339 35.486 -219.887 41.848 -216.968"/><text x="61.5" y="-231.8" font-family="Times New Roman,serif" font-size="14" text-anchor="middle">0.60</text></g><g id="edge6" class="edge"><title>x5-&gt;x3</title><path fill="none" stroke="#000" d="M72.5197,-261.207C77.1751,-249.216 83.5284,-232.851 88.8449,-219.157"/><polygon fill="#000" stroke="#000" points="92.137 -220.347 92.494 -209.758 85.612 -217.814 92.137 -220.347"/><text x="96.5" y="-231.8" font-family="Times New Roman,serif" font-size="14" text-anchor="middle">0.50</text></g><g id="node7" class="node"><title>f1(x6)</title><ellipse cx="157" cy="-105" fill="none" stroke="#000" rx="32.494" ry="18"/><text x="157" y="-101.3" font-family="Times New Roman,serif" font-size="14" text-anchor="middle">f1(x6)</text></g><g id="edge5" class="edge"><title>f1(x6)-&gt;x2</title><path fill="none" stroke="#000" d="M142.43,-88.5494C132.984,-78.6009 120.366,-65.4377 109,-54 104.591,-49.5635 99.8262,-44.8645 95.2505,-40.3987"/><polygon fill="#000" stroke="#000" points="97.438 -37.645 87.825 -33.191 92.563 -42.667 97.438 -37.645"/><text x="137.5" y="-57.8" font-family="Times New Roman,serif" font-size="14" text-anchor="middle">-0.60</text></g><g id="edge8" class="edge"><title>f1(x6)-&gt;x4</title><path fill="none" stroke="#000" d="M159.137,-86.9287C159.801,-81.2333 160.491,-74.8492 161,-69 161.639,-61.6659 162.183,-53.7147 162.626,-46.3565"/><polygon fill="#000" stroke="#000" points="166.133 -46.322 163.2 -36.141 159.144 -45.929 166.133 -46.322"/><text x="176.5" y="-57.8" font-family="Times New Roman,serif" font-size="14" text-anchor="middle">-0.50</text></g></g></svg>