<svg xmlns="http://www.w3.org/2000/svg" xmlns:xlink="http://www.w3.org/1999/xlink" width="152pt" height="305pt" viewBox="0 0 152 305"><g id="graph0" class="graph" transform="scale(1 1) rotate(0) translate(4 301)"><title>%3</title><polygon fill="#fff" stroke="none" points="-4 4 -4 -301 148 -301 148 4 -4 4"/><g id="node1" class="node"><title>x0</title><ellipse cx="61" cy="-105" fill="none" stroke="#000" rx="27" ry="18"/><text x="61" y="-101.3" font-family="Times New Roman,serif" font-size="14" text-anchor="middle">x0</text></g><g id="node3" class="node"><title>x2</title><ellipse cx="27" cy="-18" fill="none" stroke="#000" rx="27" ry="18"/><text x="27" y="-14.3" font-family="Times New Roman,serif" font-size="14" text-anchor="middle">x2</text></g><g id="edge4" class="edge"><title>x0-&gt;x2</title><path fill="none" stroke="#000" d="M54.2827,-87.2067C49.4551,-75.1377 42.8553,-58.6384 37.3563,-44.8906"/><polygon fill="#000" stroke="#000" points="40.551 -43.454 33.588 -35.469 34.052 -46.054 40.551 -43.454"/><text x="59.5" y="-57.8" font-family="Times New Roman,serif" font-size="14" text-anchor="middle">0.75</text></g><g id="node5" class="node"><title>x4</title><ellipse cx="117" cy="-18" fill="none" stroke="#000" rx="27" ry="18"/><text x="117" y="-14.3" font-family="Times New Roman,serif" font-size="14" text-anchor="middle">x4</text></g><g id="edge6" class="edge"><title>x0-&gt;x4</title><path fill="none" stroke="#000" d="M71.5332,-88.0122C79.8243,-75.4274 91.5175,-57.6788 100.969,-43.3325"/><polygon fill="#000" stroke="#000" points="103.935 -45.192 106.514 -34.916 98.09 -41.341 103.935 -45.192"/><text x="105.5" y="-57.8" font-family="Times New Roman,serif" font-size="14" text-anchor="middle">1.02</text></g><g id="node2" class="node"><title>x1</title><ellipse cx="31" cy="-192" fill="none" stroke="#000" rx="27" ry="18"/><text x="31" y="-188.3" font-family="Times New Roman,serif" font-size="14" text-anchor="middle">x1</text></g><g id="edge1" class="edge"><title>x1-&gt;x0</title><path fill="none" stroke="#000" d="M36.927,-174.207C41.1181,-162.332 46.8229,-146.168 51.6271,-132.557"/><polygon fill="#000" stroke="#000" points="55.057 -133.353 55.085 -122.758 48.456 -131.023 55.057 -133.353"/><text x="60.5" y="-144.8" font-family="Times New Roman,serif" font-size="14" text-anchor="middle">0.94</text></g><g id="edge7" class="edge"><title>x2-&gt;x4</title><path fill="none" stroke="#000" d="M64.1643,-18C69.404,-18 74.6437,-18 79.8835,-18"/><polygon fill="#000" stroke="#000" points="64.07 -14.5 54.07 -18 64.07 -21.5 64.07 -14.5"/><polygon fill="#000" stroke="#000" points="79.96 -21.5 89.96 -18 79.96 -14.5 79.96 -21.5"/></g><g id="node4" class="node"><title>x3</title><ellipse cx="103" cy="-192" fill="none" stroke="#000" rx="27" ry="18"/><text x="103" y="-188.3" font-family="Times New Roman,serif" font-size="14" text-anchor="middle">x3</text></g><g id="edge2" class="edge"><title>x3-&gt;x0</title><path fill="none" stroke="#000" d="M94.902,-174.611C88.8592,-162.382 80.4894,-145.443 73.5783,-131.456"/><polygon fill="#000" stroke="#000" points="76.641 -129.753 69.073 -122.339 70.365 -132.854 76.641 -129.753"/><text x="97.5" y="-144.8" font-family="Times New Roman,serif" font-size="14" text-anchor="middle">0.99</text></g><g id="node6" class="node"><title>x5</title><ellipse cx="70" cy="-279" fill="none" stroke="#000" rx="27" ry="18"/><text x="70" y="-275.3" font-family="Times New Roman,serif" font-size="14" text-anchor="middle">x5</text></g><g id="edge3" class="edge"><title>x5-&gt;x1</title><path fill="none" stroke="#000" d="M62.4804,-261.611C56.8693,-249.382 49.0973,-232.443 42.6798,-218.456"/><polygon fill="#000" stroke="#000" points="45.848 -216.968 38.496 -209.339 39.486 -219.887 45.848 -216.968"/><text x="65.5" y="-231.8" font-family="Times New Roman,serif" font-size="14" text-anchor="middle">0.56</text></g><g id="edge5" class="edge"><title>x5-&gt;x3</title><path fill="none" stroke="#000" d="M76.5197,-261.207C81.1751,-249.216 87.5284,-232.851 92.8449,-219.157"/><polygon fill="#000" stroke="#000" points="96.137 -220.347 96.494 -209.758 89.612 -217.814 96.137 -220.347"/><text x="101.5" y="-231.8" font-family="Times New Roman,serif" font-size="14" text-anchor="middle">0.56</text></g></g></svg>