<svg xmlns="http://www.w3.org/2000/svg" xmlns:xlink="http://www.w3.org/1999/xlink" width="626pt" height="305pt" viewBox="0 0 626.1 305"><g id="graph0" class="graph" transform="scale(1 1) rotate(0) translate(4 301)"><title>%3</title><polygon fill="#fff" stroke="none" points="-4 4 -4 -301 622.097 -301 622.097 4 -4 4"/><g id="node1" class="node"><title>x0(t)</title><ellipse cx="391.097" cy="-105" fill="none" stroke="#000" rx="27.895" ry="18"/><text x="391.097" y="-101.3" font-family="Times New Roman,serif" font-size="14" text-anchor="middle">x0(t)</text></g><g id="node3" class="node"><title>x2(t)</title><ellipse cx="363.097" cy="-18" fill="none" stroke="#000" rx="27.895" ry="18"/><text x="363.097" y="-14.3" font-family="Times New Roman,serif" font-size="14" text-anchor="middle">x2(t)</text></g><g id="edge10" class="edge"><title>x0(t)-&gt;x2(t)</title><path fill="none" stroke="#000" d="M385.565,-87.2067C381.653,-75.332 376.329,-59.1684 371.845,-45.5567"/><polygon fill="#000" stroke="#000" points="375.07 -44.161 368.617 -35.758 368.422 -46.351 375.07 -44.161"/><text x="393.597" y="-57.8" font-family="Times New Roman,serif" font-size="14" text-anchor="middle">-0.37</text></g><g id="node4" class="node"><title>x3(t)</title><ellipse cx="133.097" cy="-18" fill="none" stroke="#000" rx="27.895" ry="18"/><text x="133.097" y="-14.3" font-family="Times New Roman,serif" font-size="14" text-anchor="middle">x3(t)</text></g><g id="edge14" class="edge"><title>x0(t)-&gt;x3(t)</title><path fill="none" stroke="#000" d="M366.825,-96.0034C320.629,-80.784 219.969,-47.6207 167.093,-30.2003"/><polygon fill="#000" stroke="#000" points="168.085 -26.842 157.492 -27.037 165.895 -33.491 168.085 -26.842"/><text x="290.597" y="-57.8" font-family="Times New Roman,serif" font-size="14" text-anchor="middle">0.07</text></g><g id="node5" class="node"><title>x4(t)</title><ellipse cx="448.097" cy="-18" fill="none" stroke="#000" rx="27.895" ry="18"/><text x="448.097" y="-14.3" font-family="Times New Roman,serif" font-size="14" text-anchor="middle">x4(t)</text></g><g id="edge20" class="edge"><title>x0(t)-&gt;x4(t)</title><path fill="none" stroke="#000" d="M401.818,-88.0122C410.257,-75.4274 422.159,-57.6788 431.78,-43.3325"/><polygon fill="#000" stroke="#000" points="434.761 -45.171 437.424 -34.916 428.947 -41.272 434.761 -45.171"/><text x="435.597" y="-57.8" font-family="Times New Roman,serif" font-size="14" text-anchor="middle">0.08</text></g><g id="node2" class="node"><title>x1(t)</title><ellipse cx="266.097" cy="-192" fill="none" stroke="#000" rx="27.895" ry="18"/><text x="266.097" y="-188.3" font-family="Times New Roman,serif" font-size="14" text-anchor="middle">x1(t)</text></g><g id="edge1" class="edge"><title>x1(t)-&gt;x0(t)</title><path fill="none" stroke="#000" d="M286.654,-179.567C298.156,-172.982 312.643,-164.372 325.097,-156 339.152,-146.551 354.248,-135.21 366.451,-125.719"/><polygon fill="#000" stroke="#000" points="368.683 -128.417 374.389 -119.49 364.361 -122.91 368.683 -128.417"/><text x="360.597" y="-144.8" font-family="Times New Roman,serif" font-size="14" text-anchor="middle">-0.14</text></g><g id="edge15" class="edge"><title>x1(t)-&gt;x3(t)</title><path fill="none" stroke="#000" d="M239.29,-186.777C219.57,-182.332 193.454,-173.438 177.097,-156 148.632,-125.655 138.582,-76.8088 135.033,-46.3774"/><polygon fill="#000" stroke="#000" points="138.479 -45.668 133.998 -36.067 131.514 -46.367 138.479 -45.668"/><text x="169.597" y="-101.3" font-family="Times New Roman,serif" font-size="14" text-anchor="middle">-0.21</text></g><g id="node6" class="node"><title>x0(t-1)</title><ellipse cx="439.097" cy="-279" fill="none" stroke="#000" rx="35.194" ry="18"/><text x="439.097" y="-275.3" font-family="Times New Roman,serif" font-size="14" text-anchor="middle">x0(t-1)</text></g><g id="edge2" class="edge"><title>x0(t-1)-&gt;x0(t)</title><path fill="none" stroke="#000" d="M439.843,-260.998C440.263,-240.042 439.36,-203.574 430.097,-174 425.22,-158.428 416.356,-142.527 408.31,-130.02"/><polygon fill="#000" stroke="#000" points="411.129 -127.938 402.665 -121.566 405.308 -131.826 411.129 -127.938"/><text x="452.597" y="-188.3" font-family="Times New Roman,serif" font-size="14" text-anchor="middle">-0.37</text></g><g id="edge5" class="edge"><title>x0(t-1)-&gt;x1(t)</title><path fill="none" stroke="#000" d="M404.172,-276.882C373.093,-274.276 327.781,-266.355 296.097,-243 287.839,-236.913 281.417,-227.809 276.673,-219.032"/><polygon fill="#000" stroke="#000" points="279.699 -217.252 272.175 -209.793 273.406 -220.316 279.699 -217.252"/><text x="310.597" y="-231.8" font-family="Times New Roman,serif" font-size="14" text-anchor="middle">-0.08</text></g><g id="edge11" class="edge"><title>x0(t-1)-&gt;x2(t)</title><path fill="none" stroke="#000" d="M449.285,-261.695C456.983,-248.361 466.913,-228.718 471.097,-210 481.619,-162.927 459.774,-63.5598 452.097,-54 450.181,-51.6142 420.954,-40.3684 396.509,-31.2587"/><polygon fill="#000" stroke="#000" points="397.695 -27.965 387.101 -27.77 395.26 -34.529 397.695 -27.965"/><text x="485.597" y="-144.8" font-family="Times New Roman,serif" font-size="14" text-anchor="middle">0.08</text></g><g id="edge16" class="edge"><title>x0(t-1)-&gt;x3(t)</title><path fill="none" stroke="#000" d="M435.372,-260.943C429.194,-234.333 416.113,-184.854 402.097,-174 366.465,-146.407 233.263,-186.512 200.097,-156 177.189,-134.926 200.964,-115.343 188.097,-87 180.196,-69.5967 166.768,-52.8676 155.158,-40.3572"/><polygon fill="#000" stroke="#000" points="157.681 -37.932 148.23 -33.145 152.633 -42.781 157.681 -37.932"/><text x="214.597" y="-144.8" font-family="Times New Roman,serif" font-size="14" text-anchor="middle">-0.39</text></g><g id="node7" class="node"><title>x1(t-1)</title><ellipse cx="131.097" cy="-279" fill="none" stroke="#000" rx="35.194" ry="18"/><text x="131.097" y="-275.3" font-family="Times New Roman,serif" font-size="14" text-anchor="middle">x1(t-1)</text></g><g id="edge6" class="edge"><title>x1(t-1)-&gt;x1(t)</title><path fill="none" stroke="#000" d="M150.936,-264.016C165.69,-253.759 186.414,-239.65 205.097,-228 215.25,-221.669 226.569,-215.056 236.673,-209.305"/><polygon fill="#000" stroke="#000" points="238.555 -212.262 245.543 -204.298 235.114 -206.166 238.555 -212.262"/><text x="219.597" y="-231.8" font-family="Times New Roman,serif" font-size="14" text-anchor="middle">-0.35</text></g><g id="edge17" class="edge"><title>x1(t-1)-&gt;x3(t)</title><path fill="none" stroke="#000" d="M118.104,-261.871C101.1,-239.619 72.1646,-197.529 61.0969,-156 50.8147,-117.419 80.9701,-76.2141 96.0969,-54 99.604,-48.8497 103.984,-43.8828 108.49,-39.3885"/><polygon fill="#000" stroke="#000" points="111.139 -41.704 116.062 -32.322 106.363 -36.586 111.139 -41.704"/><text x="75.597" y="-144.8" font-family="Times New Roman,serif" font-size="14" text-anchor="middle">-0.10</text></g><g id="node8" class="node"><title>x2(t-1)</title><ellipse cx="227.097" cy="-279" fill="none" stroke="#000" rx="35.194" ry="18"/><text x="227.097" y="-275.3" font-family="Times New Roman,serif" font-size="14" text-anchor="middle">x2(t-1)</text></g><g id="edge3" class="edge"><title>x2(t-1)-&gt;x0(t)</title><path fill="none" stroke="#000" d="M261.423,-274.581C300.861,-269.898 362.08,-260.063 377.097,-243 403.519,-212.977 401.389,-163.696 396.739,-133.142"/><polygon fill="#000" stroke="#000" points="400.17 -132.443 395.031 -123.178 393.271 -133.626 400.17 -132.443"/><text x="412.597" y="-188.3" font-family="Times New Roman,serif" font-size="14" text-anchor="middle">0.07</text></g><g id="edge7" class="edge"><title>x2(t-1)-&gt;x1(t)</title><path fill="none" stroke="#000" d="M231.812,-260.947C234.801,-251.096 239.051,-238.596 244.097,-228 245.818,-224.385 247.834,-220.684 249.934,-217.106"/><polygon fill="#000" stroke="#000" points="252.922 -218.929 255.209 -208.583 246.97 -215.245 252.922 -218.929"/><text x="258.597" y="-231.8" font-family="Times New Roman,serif" font-size="14" text-anchor="middle">-0.17</text></g><g id="edge12" class="edge"><title>x2(t-1)-&gt;x2(t)</title><path fill="none" stroke="#000" d="M222.09,-261.103C216.614,-238.927 210.847,-199.801 229.097,-174 242.254,-155.399 259.445,-170.406 277.097,-156 313.845,-126.009 339.539,-75.954 352.768,-45.3672"/><polygon fill="#000" stroke="#000" points="356.141 -46.373 356.775 -35.798 349.684 -43.67 356.141 -46.373"/><text x="305.597" y="-144.8" font-family="Times New Roman,serif" font-size="14" text-anchor="middle">0.43</text></g><g id="edge18" class="edge"><title>x2(t-1)-&gt;x3(t)</title><path fill="none" stroke="#000" d="M204.79,-264.908C196.026,-259.004 186.349,-251.454 179.097,-243 150.752,-209.959 144.632,-198.239 134.097,-156 124.849,-118.919 126.815,-74.4182 129.562,-46.4176"/><polygon fill="#000" stroke="#000" points="133.072 -46.515 130.673 -36.195 126.113 -45.758 133.072 -46.515"/><text x="148.597" y="-144.8" font-family="Times New Roman,serif" font-size="14" text-anchor="middle">-0.26</text></g><g id="node9" class="node"><title>x3(t-1)</title><ellipse cx="565.097" cy="-279" fill="none" stroke="#000" rx="35.194" ry="18"/><text x="565.097" y="-275.3" font-family="Times New Roman,serif" font-size="14" text-anchor="middle">x3(t-1)</text></g><g id="edge4" class="edge"><title>x3(t-1)-&gt;x0(t)</title><path fill="none" stroke="#000" d="M568.626,-260.737C573.413,-231.984 578.233,-174.174 548.097,-141 532.344,-123.66 469.802,-114.015 428.568,-109.427"/><polygon fill="#000" stroke="#000" points="428.898 -105.942 418.585 -108.368 428.16 -112.903 428.898 -105.942"/><text x="584.597" y="-188.3" font-family="Times New Roman,serif" font-size="14" text-anchor="middle">0.30</text></g><g id="edge8" class="edge"><title>x3(t-1)-&gt;x1(t)</title><path fill="none" stroke="#000" d="M535.059,-269.461C479.342,-253.621 360.276,-219.773 301.049,-202.936"/><polygon fill="#000" stroke="#000" points="301.971 -199.56 291.395 -200.192 300.057 -206.293 301.971 -199.56"/><text x="448.597" y="-231.8" font-family="Times New Roman,serif" font-size="14" text-anchor="middle">-0.33</text></g><g id="edge21" class="edge"><title>x3(t-1)-&gt;x4(t)</title><path fill="none" stroke="#000" d="M577.954,-261.935C592.794,-241.324 613.647,-204.579 601.097,-174 575.778,-112.309 512.73,-62.0544 475.954,-36.7574"/><polygon fill="#000" stroke="#000" points="477.897 -33.846 467.648 -31.162 473.986 -39.652 477.897 -33.846"/><text x="605.597" y="-144.8" font-family="Times New Roman,serif" font-size="14" text-anchor="middle">0.07</text></g><g id="node10" class="node"><title>x4(t-1)</title><ellipse cx="35.097" cy="-279" fill="none" stroke="#000" rx="35.194" ry="18"/><text x="35.097" y="-275.3" font-family="Times New Roman,serif" font-size="14" text-anchor="middle">x4(t-1)</text></g><g id="edge9" class="edge"><title>x4(t-1)-&gt;x1(t)</title><path fill="none" stroke="#000" d="M60.8154,-266.36C84.7295,-255.736 121.472,-239.921 154.097,-228 179.65,-218.663 209.022,-209.543 231.275,-202.954"/><polygon fill="#000" stroke="#000" points="232.348 -206.287 240.959 -200.113 230.378 -199.57 232.348 -206.287"/><text x="166.597" y="-231.8" font-family="Times New Roman,serif" font-size="14" text-anchor="middle">0.43</text></g><g id="edge13" class="edge"><title>x4(t-1)-&gt;x2(t)</title><path fill="none" stroke="#000" d="M56.2035,-264.602C72.1056,-254.518 94.4538,-240.365 114.097,-228 165.13,-195.875 191.398,-203.065 229.097,-156 259.152,-118.479 231.167,-88.0568 265.097,-54 281.241,-37.7957 305.387,-29.0587 325.671,-24.3664"/><polygon fill="#000" stroke="#000" points="326.481 -27.773 335.564 -22.318 325.062 -20.918 326.481 -27.773"/><text x="251.597" y="-144.8" font-family="Times New Roman,serif" font-size="14" text-anchor="middle">0.49</text></g><g id="edge19" class="edge"><title>x4(t-1)-&gt;x3(t)</title><path fill="none" stroke="#000" d="M27.5,-261.251C25.3009,-255.578 23.1976,-249.125 22.0969,-243 17.5488,-217.693 5.32979,-212.268 26.0969,-141 39.0291,-96.6193 49.4983,-85.7494 83.0969,-54 89.6287,-47.8277 97.3204,-41.9036 104.687,-36.7407"/><polygon fill="#000" stroke="#000" points="106.768 -39.558 113.095 -31.06 102.85 -33.758 106.768 -39.558"/><text x="40.597" y="-144.8" font-family="Times New Roman,serif" font-size="14" text-anchor="middle">-0.16</text></g></g></svg>