<svg xmlns="http://www.w3.org/2000/svg" xmlns:xlink="http://www.w3.org/1999/xlink" width="469pt" height="218pt" viewBox="0 0 469.04 218"><g id="graph0" class="graph" transform="scale(1 1) rotate(0) translate(4 214)"><title>%3</title><polygon fill="#fff" stroke="none" points="-4 4 -4 -214 465.044 -214 465.044 4 -4 4"/><g id="node1" class="node"><title>y0(t)</title><ellipse cx="194.948" cy="-105" fill="none" stroke="#000" rx="27.895" ry="18"/><text x="194.948" y="-101.3" font-family="Times New Roman,serif" font-size="14" text-anchor="middle">y0(t)</text></g><g id="node2" class="node"><title>y1(t)</title><ellipse cx="123.948" cy="-18" fill="none" stroke="#000" rx="27.895" ry="18"/><text x="123.948" y="-14.3" font-family="Times New Roman,serif" font-size="14" text-anchor="middle">y1(t)</text></g><g id="edge3" class="edge"><title>y0(t)-&gt;y1(t)</title><path fill="none" stroke="#000" d="M182.254,-88.8037C171.417,-75.8301 155.664,-56.9699 143.262,-42.1235"/><polygon fill="#000" stroke="#000" points="145.867 -39.782 136.77 -34.351 140.495 -44.27 145.867 -39.782"/><text x="178.448" y="-57.8" font-family="Times New Roman,serif" font-size="14" text-anchor="middle">-0.39</text></g><g id="node4" class="node"><title>y3(t)</title><ellipse cx="275.948" cy="-18" fill="none" stroke="#000" rx="27.895" ry="18"/><text x="275.948" y="-14.3" font-family="Times New Roman,serif" font-size="14" text-anchor="middle">y3(t)</text></g><g id="edge6" class="edge"><title>y0(t)-&gt;y3(t)</title><path fill="none" stroke="#000" d="M209.057,-89.1941C221.717,-75.9087 240.471,-56.2284 254.903,-41.0842"/><polygon fill="#000" stroke="#000" points="257.635 -43.29 262 -33.636 252.568 -38.461 257.635 -43.29"/><text x="253.448" y="-57.8" font-family="Times New Roman,serif" font-size="14" text-anchor="middle">0.52</text></g><g id="node3" class="node"><title>y2(t)</title><ellipse cx="344.948" cy="-192" fill="none" stroke="#000" rx="27.895" ry="18"/><text x="344.948" y="-188.3" font-family="Times New Roman,serif" font-size="14" text-anchor="middle">y2(t)</text></g><g id="node5" class="node"><title>y4(t)</title><ellipse cx="27.948" cy="-18" fill="none" stroke="#000" rx="27.895" ry="18"/><text x="27.948" y="-14.3" font-family="Times New Roman,serif" font-size="14" text-anchor="middle">y4(t)</text></g><g id="node6" class="node"><title>y0(t-1)</title><ellipse cx="39.947" cy="-105" fill="none" stroke="#000" rx="35.194" ry="18"/><text x="39.947" y="-101.3" font-family="Times New Roman,serif" font-size="14" text-anchor="middle">y0(t-1)</text></g><g id="edge4" class="edge"><title>y0(t-1)-&gt;y1(t)</title><path fill="none" stroke="#000" d="M51.7469,-87.9905C59.5576,-77.8191 70.2915,-64.6174 80.9475,-54 86.2917,-48.6752 92.3939,-43.3303 98.2892,-38.4766"/><polygon fill="#000" stroke="#000" points="100.494 -41.195 106.109 -32.211 96.117 -35.732 100.494 -41.195"/><text x="95.448" y="-57.8" font-family="Times New Roman,serif" font-size="14" text-anchor="middle">-0.32</text></g><g id="edge9" class="edge"><title>y0(t-1)-&gt;y4(t)</title><path fill="none" stroke="#000" d="M33.5855,-87.1457C31.7291,-81.4648 29.9353,-75.0343 28.9475,-69 27.7602,-61.7464 27.2487,-53.8225 27.096,-46.4647"/><polygon fill="#000" stroke="#000" points="30.596 -46.233 27.092 -36.234 23.596 -46.235 30.596 -46.233"/><text x="43.447" y="-57.8" font-family="Times New Roman,serif" font-size="14" text-anchor="middle">-0.49</text></g><g id="node7" class="node"><title>y1(t-1)</title><ellipse cx="275.948" cy="-105" fill="none" stroke="#000" rx="35.194" ry="18"/><text x="275.948" y="-101.3" font-family="Times New Roman,serif" font-size="14" text-anchor="middle">y1(t-1)</text></g><g id="edge7" class="edge"><title>y1(t-1)-&gt;y3(t)</title><path fill="none" stroke="#000" d="M275.948,-86.799C275.948,-75.1626 275.948,-59.5479 275.948,-46.2368"/><polygon fill="#000" stroke="#000" points="279.448 -46.175 275.948 -36.175 272.448 -46.175 279.448 -46.175"/><text x="288.448" y="-57.8" font-family="Times New Roman,serif" font-size="14" text-anchor="middle">0.70</text></g><g id="node8" class="node"><title>y2(t-1)</title><ellipse cx="175.948" cy="-192" fill="none" stroke="#000" rx="35.194" ry="18"/><text x="175.948" y="-188.3" font-family="Times New Roman,serif" font-size="14" text-anchor="middle">y2(t-1)</text></g><g id="edge1" class="edge"><title>y2(t-1)-&gt;y0(t)</title><path fill="none" stroke="#000" d="M179.792,-173.799C182.411,-162.086 185.93,-146.342 188.918,-132.974"/><polygon fill="#000" stroke="#000" points="192.407 -133.408 191.173 -122.885 185.576 -131.881 192.407 -133.408"/><text x="201.448" y="-144.8" font-family="Times New Roman,serif" font-size="14" text-anchor="middle">-0.42</text></g><g id="node9" class="node"><title>y3(t-1)</title><ellipse cx="425.948" cy="-192" fill="none" stroke="#000" rx="35.194" ry="18"/><text x="425.948" y="-188.3" font-family="Times New Roman,serif" font-size="14" text-anchor="middle">y3(t-1)</text></g><g id="node10" class="node"><title>y4(t-1)</title><ellipse cx="263.948" cy="-192" fill="none" stroke="#000" rx="35.194" ry="18"/><text x="263.948" y="-188.3" font-family="Times New Roman,serif" font-size="14" text-anchor="middle">y4(t-1)</text></g><g id="edge2" class="edge"><title>y4(t-1)-&gt;y0(t)</title><path fill="none" stroke="#000" d="M250.969,-175.012C240.526,-162.148 225.704,-143.888 213.928,-129.382"/><polygon fill="#000" stroke="#000" points="216.423 -126.902 207.403 -121.344 210.988 -131.313 216.423 -126.902"/><text x="246.448" y="-144.8" font-family="Times New Roman,serif" font-size="14" text-anchor="middle">0.59</text></g><g id="edge5" class="edge"><title>y4(t-1)-&gt;y1(t)</title><path fill="none" stroke="#000" d="M237.104,-180.369C216.902,-172.239 191.031,-161.517 180.948,-156 158.236,-143.573 145.977,-145.371 132.948,-123 119.387,-99.7175 118.541,-68.4015 120.216,-46.2354"/><polygon fill="#000" stroke="#000" points="123.711 -46.456 121.196 -36.164 116.744 -45.778 123.711 -46.456"/><text x="145.448" y="-101.3" font-family="Times New Roman,serif" font-size="14" text-anchor="middle">0.38</text></g><g id="edge8" class="edge"><title>y4(t-1)-&gt;y3(t)</title><path fill="none" stroke="#000" d="M281.357,-176.279C294.782,-163.704 312.304,-144.305 319.948,-123 330.545,-93.4606 321.598,-80.6014 304.948,-54 302.362,-49.8696 299.337,-45.6954 296.234,-41.7389"/><polygon fill="#000" stroke="#000" points="298.929 -39.506 289.873 -34.007 293.523 -43.953 298.929 -39.506"/><text x="339.448" y="-101.3" font-family="Times New Roman,serif" font-size="14" text-anchor="middle">-0.81</text></g></g></svg>